M48
;DRILL file {KiCad 4.0.6} date Tue Jun  6 10:51:22 2017
;FORMAT={-:-/ absolute / inch / decimal}
FMAT,2
INCH,TZ
T1C0.016
T2C0.030
T3C0.031
T4C0.039
T5C0.063
%
G90
G05
M72
T1
X1.32Y-1.96
X1.46Y-1.96
X2.04Y-2.94
X2.8Y-1.46
X3.39Y-1.08
X3.5Y-1.28
X3.72Y-1.6
T2
X2.34Y-1.22
X2.34Y-1.32
X2.34Y-1.42
X2.34Y-1.52
X2.34Y-1.62
X2.34Y-1.72
X2.34Y-1.82
X2.34Y-1.92
X2.34Y-2.02
X2.34Y-2.12
X2.34Y-2.22
X2.34Y-2.32
X2.34Y-2.42
X2.34Y-2.52
X2.34Y-2.62
X3.24Y-1.22
X3.24Y-1.32
X3.24Y-1.42
X3.24Y-1.52
X3.24Y-1.62
X3.24Y-1.72
X3.24Y-1.82
X3.24Y-1.92
X3.24Y-2.02
X3.24Y-2.12
X3.24Y-2.22
X3.24Y-2.32
X3.24Y-2.42
X3.24Y-2.52
X3.24Y-2.62
T3
X4.Y-2.52
X4.Y-3.02
X4.2Y-1.2216
X4.2Y-1.32
T4
X1.12Y-1.32
X1.12Y-1.42
X1.12Y-1.52
X1.12Y-2.22
X1.12Y-2.32
X1.12Y-2.42
X1.12Y-2.52
X1.12Y-2.62
X1.12Y-2.72
X1.7Y-1.22
X1.7Y-1.32
X1.7Y-1.42
X1.7Y-1.52
X1.7Y-1.62
X1.7Y-1.72
X1.7Y-1.82
X1.7Y-2.22
X1.7Y-2.32
X1.7Y-2.42
X1.7Y-2.52
X2.02Y-2.22
X2.02Y-2.32
X2.26Y-3.16
X2.26Y-3.4
X2.36Y-3.16
X2.36Y-3.4
X2.46Y-3.16
X2.46Y-3.4
X2.8841Y-3.4
X3.14Y-3.4
X3.7Y-1.22
X3.7Y-1.32
X3.72Y-2.62
X3.72Y-2.72
X3.72Y-2.82
T5
X3.58Y-0.9
X4.18Y-0.9
T0
M30
