G04 #@! TF.FileFunction,Soldermask,Top*
%FSLAX46Y46*%
G04 Gerber Fmt 4.6, Leading zero omitted, Abs format (unit mm)*
G04 Created by KiCad (PCBNEW 4.0.6) date Tue Jun  6 10:50:41 2017*
%MOMM*%
%LPD*%
G01*
G04 APERTURE LIST*
%ADD10C,0.100000*%
%ADD11R,2.100000X2.100000*%
%ADD12O,2.100000X2.100000*%
%ADD13C,1.924000*%
%ADD14R,2.000000X2.000000*%
%ADD15C,2.000000*%
%ADD16O,2.000000X2.000000*%
%ADD17R,3.600000X3.600000*%
%ADD18O,3.600000X3.600000*%
G04 APERTURE END LIST*
D10*
D11*
X57404000Y-80264000D03*
D12*
X59944000Y-80264000D03*
X62484000Y-80264000D03*
D13*
X82296000Y-66548000D03*
X82296000Y-64008000D03*
X82296000Y-61468000D03*
X82296000Y-58928000D03*
X82296000Y-56388000D03*
X82296000Y-53848000D03*
X82296000Y-51308000D03*
X82296000Y-48768000D03*
X82296000Y-46228000D03*
X82296000Y-43688000D03*
X82296000Y-41148000D03*
X82296000Y-38608000D03*
X82296000Y-36068000D03*
X82296000Y-33528000D03*
X82296000Y-30988000D03*
X59436000Y-30988000D03*
X59436000Y-33528000D03*
X59436000Y-36068000D03*
X59436000Y-38608000D03*
X59436000Y-41148000D03*
X59436000Y-43688000D03*
X59436000Y-46228000D03*
X59436000Y-48768000D03*
X59436000Y-51308000D03*
X59436000Y-53848000D03*
X59436000Y-56388000D03*
X59436000Y-58928000D03*
X59436000Y-61468000D03*
X59436000Y-64008000D03*
X59436000Y-66548000D03*
D14*
X106680000Y-31028000D03*
D15*
X106680000Y-33528000D03*
D11*
X94488000Y-66548000D03*
D12*
X94488000Y-69088000D03*
X94488000Y-71628000D03*
D11*
X43180000Y-30988000D03*
D12*
X43180000Y-33528000D03*
X43180000Y-36068000D03*
X43180000Y-38608000D03*
X43180000Y-41148000D03*
X43180000Y-43688000D03*
X43180000Y-46228000D03*
D11*
X93980000Y-30988000D03*
D12*
X93980000Y-33528000D03*
D11*
X43180000Y-56388000D03*
D12*
X43180000Y-58928000D03*
X43180000Y-61468000D03*
X43180000Y-64008000D03*
D11*
X28448000Y-33528000D03*
D12*
X28448000Y-36068000D03*
X28448000Y-38608000D03*
D11*
X57404000Y-86360000D03*
D12*
X59944000Y-86360000D03*
X62484000Y-86360000D03*
D14*
X79756000Y-86360000D03*
D15*
X73256000Y-86360000D03*
X101600000Y-64008000D03*
D16*
X101600000Y-76708000D03*
D11*
X51308000Y-56388000D03*
D12*
X51308000Y-58928000D03*
D11*
X28448000Y-56388000D03*
D12*
X28448000Y-58928000D03*
X28448000Y-61468000D03*
X28448000Y-64008000D03*
X28448000Y-66548000D03*
X28448000Y-69088000D03*
D17*
X90932000Y-22860000D03*
D18*
X106172000Y-22860000D03*
M02*
