G04 #@! TF.FileFunction,Legend,Top*
%FSLAX46Y46*%
G04 Gerber Fmt 4.6, Leading zero omitted, Abs format (unit mm)*
G04 Created by KiCad (PCBNEW 4.0.6) date Tue Jun  6 10:50:41 2017*
%MOMM*%
%LPD*%
G01*
G04 APERTURE LIST*
%ADD10C,0.100000*%
%ADD11C,0.300000*%
%ADD12C,0.120000*%
%ADD13C,0.150000*%
G04 APERTURE END LIST*
D10*
D11*
X88816857Y-67216571D02*
X88816857Y-65716571D01*
X89316857Y-66788000D01*
X89816857Y-65716571D01*
X89816857Y-67216571D01*
X90531143Y-67216571D02*
X90531143Y-65716571D01*
X92102572Y-67073714D02*
X92031143Y-67145143D01*
X91816857Y-67216571D01*
X91674000Y-67216571D01*
X91459715Y-67145143D01*
X91316857Y-67002286D01*
X91245429Y-66859429D01*
X91174000Y-66573714D01*
X91174000Y-66359429D01*
X91245429Y-66073714D01*
X91316857Y-65930857D01*
X91459715Y-65788000D01*
X91674000Y-65716571D01*
X91816857Y-65716571D01*
X92031143Y-65788000D01*
X92102572Y-65859429D01*
X89281143Y-68338000D02*
X89138286Y-68266571D01*
X88924000Y-68266571D01*
X88709715Y-68338000D01*
X88566857Y-68480857D01*
X88495429Y-68623714D01*
X88424000Y-68909429D01*
X88424000Y-69123714D01*
X88495429Y-69409429D01*
X88566857Y-69552286D01*
X88709715Y-69695143D01*
X88924000Y-69766571D01*
X89066857Y-69766571D01*
X89281143Y-69695143D01*
X89352572Y-69623714D01*
X89352572Y-69123714D01*
X89066857Y-69123714D01*
X89995429Y-69766571D02*
X89995429Y-68266571D01*
X90852572Y-69766571D01*
X90852572Y-68266571D01*
X91566858Y-69766571D02*
X91566858Y-68266571D01*
X91924001Y-68266571D01*
X92138286Y-68338000D01*
X92281144Y-68480857D01*
X92352572Y-68623714D01*
X92424001Y-68909429D01*
X92424001Y-69123714D01*
X92352572Y-69409429D01*
X92281144Y-69552286D01*
X92138286Y-69695143D01*
X91924001Y-69766571D01*
X91566858Y-69766571D01*
X88424000Y-70816571D02*
X88924000Y-72316571D01*
X89424000Y-70816571D01*
X90781143Y-72173714D02*
X90709714Y-72245143D01*
X90495428Y-72316571D01*
X90352571Y-72316571D01*
X90138286Y-72245143D01*
X89995428Y-72102286D01*
X89924000Y-71959429D01*
X89852571Y-71673714D01*
X89852571Y-71459429D01*
X89924000Y-71173714D01*
X89995428Y-71030857D01*
X90138286Y-70888000D01*
X90352571Y-70816571D01*
X90495428Y-70816571D01*
X90709714Y-70888000D01*
X90781143Y-70959429D01*
X92281143Y-72173714D02*
X92209714Y-72245143D01*
X91995428Y-72316571D01*
X91852571Y-72316571D01*
X91638286Y-72245143D01*
X91495428Y-72102286D01*
X91424000Y-71959429D01*
X91352571Y-71673714D01*
X91352571Y-71459429D01*
X91424000Y-71173714D01*
X91495428Y-71030857D01*
X91638286Y-70888000D01*
X91852571Y-70816571D01*
X91995428Y-70816571D01*
X92209714Y-70888000D01*
X92281143Y-70959429D01*
X51911429Y-85538571D02*
X52197143Y-85538571D01*
X52340001Y-85610000D01*
X52482858Y-85752857D01*
X52554286Y-86038571D01*
X52554286Y-86538571D01*
X52482858Y-86824286D01*
X52340001Y-86967143D01*
X52197143Y-87038571D01*
X51911429Y-87038571D01*
X51768572Y-86967143D01*
X51625715Y-86824286D01*
X51554286Y-86538571D01*
X51554286Y-86038571D01*
X51625715Y-85752857D01*
X51768572Y-85610000D01*
X51911429Y-85538571D01*
X53697144Y-86252857D02*
X53197144Y-86252857D01*
X53197144Y-87038571D02*
X53197144Y-85538571D01*
X53911430Y-85538571D01*
X54982858Y-86252857D02*
X54482858Y-86252857D01*
X54482858Y-87038571D02*
X54482858Y-85538571D01*
X55197144Y-85538571D01*
X51911429Y-79696571D02*
X52197143Y-79696571D01*
X52340001Y-79768000D01*
X52482858Y-79910857D01*
X52554286Y-80196571D01*
X52554286Y-80696571D01*
X52482858Y-80982286D01*
X52340001Y-81125143D01*
X52197143Y-81196571D01*
X51911429Y-81196571D01*
X51768572Y-81125143D01*
X51625715Y-80982286D01*
X51554286Y-80696571D01*
X51554286Y-80196571D01*
X51625715Y-79910857D01*
X51768572Y-79768000D01*
X51911429Y-79696571D01*
X53697144Y-80410857D02*
X53197144Y-80410857D01*
X53197144Y-81196571D02*
X53197144Y-79696571D01*
X53911430Y-79696571D01*
X54982858Y-80410857D02*
X54482858Y-80410857D01*
X54482858Y-81196571D02*
X54482858Y-79696571D01*
X55197144Y-79696571D01*
X65111428Y-85792571D02*
X65397142Y-85792571D01*
X65540000Y-85864000D01*
X65682857Y-86006857D01*
X65754285Y-86292571D01*
X65754285Y-86792571D01*
X65682857Y-87078286D01*
X65540000Y-87221143D01*
X65397142Y-87292571D01*
X65111428Y-87292571D01*
X64968571Y-87221143D01*
X64825714Y-87078286D01*
X64754285Y-86792571D01*
X64754285Y-86292571D01*
X64825714Y-86006857D01*
X64968571Y-85864000D01*
X65111428Y-85792571D01*
X66397143Y-87292571D02*
X66397143Y-85792571D01*
X67254286Y-87292571D01*
X67254286Y-85792571D01*
X64857428Y-79442571D02*
X65143142Y-79442571D01*
X65286000Y-79514000D01*
X65428857Y-79656857D01*
X65500285Y-79942571D01*
X65500285Y-80442571D01*
X65428857Y-80728286D01*
X65286000Y-80871143D01*
X65143142Y-80942571D01*
X64857428Y-80942571D01*
X64714571Y-80871143D01*
X64571714Y-80728286D01*
X64500285Y-80442571D01*
X64500285Y-79942571D01*
X64571714Y-79656857D01*
X64714571Y-79514000D01*
X64857428Y-79442571D01*
X66143143Y-80942571D02*
X66143143Y-79442571D01*
X67000286Y-80942571D01*
X67000286Y-79442571D01*
X38227143Y-55623000D02*
X38084286Y-55551571D01*
X37870000Y-55551571D01*
X37655715Y-55623000D01*
X37512857Y-55765857D01*
X37441429Y-55908714D01*
X37370000Y-56194429D01*
X37370000Y-56408714D01*
X37441429Y-56694429D01*
X37512857Y-56837286D01*
X37655715Y-56980143D01*
X37870000Y-57051571D01*
X38012857Y-57051571D01*
X38227143Y-56980143D01*
X38298572Y-56908714D01*
X38298572Y-56408714D01*
X38012857Y-56408714D01*
X38941429Y-57051571D02*
X38941429Y-55551571D01*
X39798572Y-57051571D01*
X39798572Y-55551571D01*
X40512858Y-57051571D02*
X40512858Y-55551571D01*
X40870001Y-55551571D01*
X41084286Y-55623000D01*
X41227144Y-55765857D01*
X41298572Y-55908714D01*
X41370001Y-56194429D01*
X41370001Y-56408714D01*
X41298572Y-56694429D01*
X41227144Y-56837286D01*
X41084286Y-56980143D01*
X40870001Y-57051571D01*
X40512858Y-57051571D01*
X39084287Y-58101571D02*
X38370001Y-58101571D01*
X38298572Y-58815857D01*
X38370001Y-58744429D01*
X38512858Y-58673000D01*
X38870001Y-58673000D01*
X39012858Y-58744429D01*
X39084287Y-58815857D01*
X39155715Y-58958714D01*
X39155715Y-59315857D01*
X39084287Y-59458714D01*
X39012858Y-59530143D01*
X38870001Y-59601571D01*
X38512858Y-59601571D01*
X38370001Y-59530143D01*
X38298572Y-59458714D01*
X39584286Y-58101571D02*
X40084286Y-59601571D01*
X40584286Y-58101571D01*
X37548572Y-62080143D02*
X37762858Y-62151571D01*
X38120001Y-62151571D01*
X38262858Y-62080143D01*
X38334287Y-62008714D01*
X38405715Y-61865857D01*
X38405715Y-61723000D01*
X38334287Y-61580143D01*
X38262858Y-61508714D01*
X38120001Y-61437286D01*
X37834287Y-61365857D01*
X37691429Y-61294429D01*
X37620001Y-61223000D01*
X37548572Y-61080143D01*
X37548572Y-60937286D01*
X37620001Y-60794429D01*
X37691429Y-60723000D01*
X37834287Y-60651571D01*
X38191429Y-60651571D01*
X38405715Y-60723000D01*
X39048572Y-62151571D02*
X39048572Y-60651571D01*
X39405715Y-60651571D01*
X39620000Y-60723000D01*
X39762858Y-60865857D01*
X39834286Y-61008714D01*
X39905715Y-61294429D01*
X39905715Y-61508714D01*
X39834286Y-61794429D01*
X39762858Y-61937286D01*
X39620000Y-62080143D01*
X39405715Y-62151571D01*
X39048572Y-62151571D01*
X40477143Y-61723000D02*
X41191429Y-61723000D01*
X40334286Y-62151571D02*
X40834286Y-60651571D01*
X41334286Y-62151571D01*
X37584286Y-64630143D02*
X37798572Y-64701571D01*
X38155715Y-64701571D01*
X38298572Y-64630143D01*
X38370001Y-64558714D01*
X38441429Y-64415857D01*
X38441429Y-64273000D01*
X38370001Y-64130143D01*
X38298572Y-64058714D01*
X38155715Y-63987286D01*
X37870001Y-63915857D01*
X37727143Y-63844429D01*
X37655715Y-63773000D01*
X37584286Y-63630143D01*
X37584286Y-63487286D01*
X37655715Y-63344429D01*
X37727143Y-63273000D01*
X37870001Y-63201571D01*
X38227143Y-63201571D01*
X38441429Y-63273000D01*
X39941429Y-64558714D02*
X39870000Y-64630143D01*
X39655714Y-64701571D01*
X39512857Y-64701571D01*
X39298572Y-64630143D01*
X39155714Y-64487286D01*
X39084286Y-64344429D01*
X39012857Y-64058714D01*
X39012857Y-63844429D01*
X39084286Y-63558714D01*
X39155714Y-63415857D01*
X39298572Y-63273000D01*
X39512857Y-63201571D01*
X39655714Y-63201571D01*
X39870000Y-63273000D01*
X39941429Y-63344429D01*
X41298572Y-64701571D02*
X40584286Y-64701571D01*
X40584286Y-63201571D01*
X22169715Y-55541571D02*
X23098286Y-55541571D01*
X22598286Y-56113000D01*
X22812572Y-56113000D01*
X22955429Y-56184429D01*
X23026858Y-56255857D01*
X23098286Y-56398714D01*
X23098286Y-56755857D01*
X23026858Y-56898714D01*
X22955429Y-56970143D01*
X22812572Y-57041571D01*
X22384000Y-57041571D01*
X22241143Y-56970143D01*
X22169715Y-56898714D01*
X23741143Y-56898714D02*
X23812571Y-56970143D01*
X23741143Y-57041571D01*
X23669714Y-56970143D01*
X23741143Y-56898714D01*
X23741143Y-57041571D01*
X24312572Y-55541571D02*
X25241143Y-55541571D01*
X24741143Y-56113000D01*
X24955429Y-56113000D01*
X25098286Y-56184429D01*
X25169715Y-56255857D01*
X25241143Y-56398714D01*
X25241143Y-56755857D01*
X25169715Y-56898714D01*
X25098286Y-56970143D01*
X24955429Y-57041571D01*
X24526857Y-57041571D01*
X24384000Y-56970143D01*
X24312572Y-56898714D01*
X25669714Y-55541571D02*
X26169714Y-57041571D01*
X26669714Y-55541571D01*
X23241143Y-58163000D02*
X23098286Y-58091571D01*
X22884000Y-58091571D01*
X22669715Y-58163000D01*
X22526857Y-58305857D01*
X22455429Y-58448714D01*
X22384000Y-58734429D01*
X22384000Y-58948714D01*
X22455429Y-59234429D01*
X22526857Y-59377286D01*
X22669715Y-59520143D01*
X22884000Y-59591571D01*
X23026857Y-59591571D01*
X23241143Y-59520143D01*
X23312572Y-59448714D01*
X23312572Y-58948714D01*
X23026857Y-58948714D01*
X23955429Y-59591571D02*
X23955429Y-58091571D01*
X24812572Y-59591571D01*
X24812572Y-58091571D01*
X25526858Y-59591571D02*
X25526858Y-58091571D01*
X25884001Y-58091571D01*
X26098286Y-58163000D01*
X26241144Y-58305857D01*
X26312572Y-58448714D01*
X26384001Y-58734429D01*
X26384001Y-58948714D01*
X26312572Y-59234429D01*
X26241144Y-59377286D01*
X26098286Y-59520143D01*
X25884001Y-59591571D01*
X25526858Y-59591571D01*
X22598286Y-62070143D02*
X22812572Y-62141571D01*
X23169715Y-62141571D01*
X23312572Y-62070143D01*
X23384001Y-61998714D01*
X23455429Y-61855857D01*
X23455429Y-61713000D01*
X23384001Y-61570143D01*
X23312572Y-61498714D01*
X23169715Y-61427286D01*
X22884001Y-61355857D01*
X22741143Y-61284429D01*
X22669715Y-61213000D01*
X22598286Y-61070143D01*
X22598286Y-60927286D01*
X22669715Y-60784429D01*
X22741143Y-60713000D01*
X22884001Y-60641571D01*
X23241143Y-60641571D01*
X23455429Y-60713000D01*
X24955429Y-61998714D02*
X24884000Y-62070143D01*
X24669714Y-62141571D01*
X24526857Y-62141571D01*
X24312572Y-62070143D01*
X24169714Y-61927286D01*
X24098286Y-61784429D01*
X24026857Y-61498714D01*
X24026857Y-61284429D01*
X24098286Y-60998714D01*
X24169714Y-60855857D01*
X24312572Y-60713000D01*
X24526857Y-60641571D01*
X24669714Y-60641571D01*
X24884000Y-60713000D01*
X24955429Y-60784429D01*
X26312572Y-62141571D02*
X25598286Y-62141571D01*
X25598286Y-60641571D01*
X22562572Y-64620143D02*
X22776858Y-64691571D01*
X23134001Y-64691571D01*
X23276858Y-64620143D01*
X23348287Y-64548714D01*
X23419715Y-64405857D01*
X23419715Y-64263000D01*
X23348287Y-64120143D01*
X23276858Y-64048714D01*
X23134001Y-63977286D01*
X22848287Y-63905857D01*
X22705429Y-63834429D01*
X22634001Y-63763000D01*
X22562572Y-63620143D01*
X22562572Y-63477286D01*
X22634001Y-63334429D01*
X22705429Y-63263000D01*
X22848287Y-63191571D01*
X23205429Y-63191571D01*
X23419715Y-63263000D01*
X24062572Y-64691571D02*
X24062572Y-63191571D01*
X24419715Y-63191571D01*
X24634000Y-63263000D01*
X24776858Y-63405857D01*
X24848286Y-63548714D01*
X24919715Y-63834429D01*
X24919715Y-64048714D01*
X24848286Y-64334429D01*
X24776858Y-64477286D01*
X24634000Y-64620143D01*
X24419715Y-64691571D01*
X24062572Y-64691571D01*
X25491143Y-64263000D02*
X26205429Y-64263000D01*
X25348286Y-64691571D02*
X25848286Y-63191571D01*
X26348286Y-64691571D01*
X23384001Y-67098714D02*
X23312572Y-67170143D01*
X23098286Y-67241571D01*
X22955429Y-67241571D01*
X22741144Y-67170143D01*
X22598286Y-67027286D01*
X22526858Y-66884429D01*
X22455429Y-66598714D01*
X22455429Y-66384429D01*
X22526858Y-66098714D01*
X22598286Y-65955857D01*
X22741144Y-65813000D01*
X22955429Y-65741571D01*
X23098286Y-65741571D01*
X23312572Y-65813000D01*
X23384001Y-65884429D01*
X23955429Y-67170143D02*
X24169715Y-67241571D01*
X24526858Y-67241571D01*
X24669715Y-67170143D01*
X24741144Y-67098714D01*
X24812572Y-66955857D01*
X24812572Y-66813000D01*
X24741144Y-66670143D01*
X24669715Y-66598714D01*
X24526858Y-66527286D01*
X24241144Y-66455857D01*
X24098286Y-66384429D01*
X24026858Y-66313000D01*
X23955429Y-66170143D01*
X23955429Y-66027286D01*
X24026858Y-65884429D01*
X24098286Y-65813000D01*
X24241144Y-65741571D01*
X24598286Y-65741571D01*
X24812572Y-65813000D01*
X25955429Y-66455857D02*
X26169715Y-66527286D01*
X26241143Y-66598714D01*
X26312572Y-66741571D01*
X26312572Y-66955857D01*
X26241143Y-67098714D01*
X26169715Y-67170143D01*
X26026857Y-67241571D01*
X25455429Y-67241571D01*
X25455429Y-65741571D01*
X25955429Y-65741571D01*
X26098286Y-65813000D01*
X26169715Y-65884429D01*
X26241143Y-66027286D01*
X26241143Y-66170143D01*
X26169715Y-66313000D01*
X26098286Y-66384429D01*
X25955429Y-66455857D01*
X25455429Y-66455857D01*
X22419714Y-69720143D02*
X22634000Y-69791571D01*
X22991143Y-69791571D01*
X23134000Y-69720143D01*
X23205429Y-69648714D01*
X23276857Y-69505857D01*
X23276857Y-69363000D01*
X23205429Y-69220143D01*
X23134000Y-69148714D01*
X22991143Y-69077286D01*
X22705429Y-69005857D01*
X22562571Y-68934429D01*
X22491143Y-68863000D01*
X22419714Y-68720143D01*
X22419714Y-68577286D01*
X22491143Y-68434429D01*
X22562571Y-68363000D01*
X22705429Y-68291571D01*
X23062571Y-68291571D01*
X23276857Y-68363000D01*
X23919714Y-69791571D02*
X23919714Y-68291571D01*
X24276857Y-68291571D01*
X24491142Y-68363000D01*
X24634000Y-68505857D01*
X24705428Y-68648714D01*
X24776857Y-68934429D01*
X24776857Y-69148714D01*
X24705428Y-69434429D01*
X24634000Y-69577286D01*
X24491142Y-69720143D01*
X24276857Y-69791571D01*
X23919714Y-69791571D01*
X25705428Y-68291571D02*
X25991142Y-68291571D01*
X26134000Y-68363000D01*
X26276857Y-68505857D01*
X26348285Y-68791571D01*
X26348285Y-69291571D01*
X26276857Y-69577286D01*
X26134000Y-69720143D01*
X25991142Y-69791571D01*
X25705428Y-69791571D01*
X25562571Y-69720143D01*
X25419714Y-69577286D01*
X25348285Y-69291571D01*
X25348285Y-68791571D01*
X25419714Y-68505857D01*
X25562571Y-68363000D01*
X25705428Y-68291571D01*
X31043429Y-32696571D02*
X30329143Y-32696571D01*
X30257714Y-33410857D01*
X30329143Y-33339429D01*
X30472000Y-33268000D01*
X30829143Y-33268000D01*
X30972000Y-33339429D01*
X31043429Y-33410857D01*
X31114857Y-33553714D01*
X31114857Y-33910857D01*
X31043429Y-34053714D01*
X30972000Y-34125143D01*
X30829143Y-34196571D01*
X30472000Y-34196571D01*
X30329143Y-34125143D01*
X30257714Y-34053714D01*
X31543428Y-32696571D02*
X32043428Y-34196571D01*
X32543428Y-32696571D01*
X30329143Y-36746571D02*
X30329143Y-35246571D01*
X30686286Y-35246571D01*
X30900571Y-35318000D01*
X31043429Y-35460857D01*
X31114857Y-35603714D01*
X31186286Y-35889429D01*
X31186286Y-36103714D01*
X31114857Y-36389429D01*
X31043429Y-36532286D01*
X30900571Y-36675143D01*
X30686286Y-36746571D01*
X30329143Y-36746571D01*
X31757714Y-36318000D02*
X32472000Y-36318000D01*
X31614857Y-36746571D02*
X32114857Y-35246571D01*
X32614857Y-36746571D01*
X32900571Y-35246571D02*
X33757714Y-35246571D01*
X33329143Y-36746571D02*
X33329143Y-35246571D01*
X34186285Y-36318000D02*
X34900571Y-36318000D01*
X34043428Y-36746571D02*
X34543428Y-35246571D01*
X35043428Y-36746571D01*
X36971999Y-35246571D02*
X37257713Y-35246571D01*
X37400571Y-35318000D01*
X37543428Y-35460857D01*
X37614856Y-35746571D01*
X37614856Y-36246571D01*
X37543428Y-36532286D01*
X37400571Y-36675143D01*
X37257713Y-36746571D01*
X36971999Y-36746571D01*
X36829142Y-36675143D01*
X36686285Y-36532286D01*
X36614856Y-36246571D01*
X36614856Y-35746571D01*
X36686285Y-35460857D01*
X36829142Y-35318000D01*
X36971999Y-35246571D01*
X38257714Y-35246571D02*
X38257714Y-36460857D01*
X38329142Y-36603714D01*
X38400571Y-36675143D01*
X38543428Y-36746571D01*
X38829142Y-36746571D01*
X38972000Y-36675143D01*
X39043428Y-36603714D01*
X39114857Y-36460857D01*
X39114857Y-35246571D01*
X39614857Y-35246571D02*
X40472000Y-35246571D01*
X40043429Y-36746571D02*
X40043429Y-35246571D01*
X31114857Y-37868000D02*
X30972000Y-37796571D01*
X30757714Y-37796571D01*
X30543429Y-37868000D01*
X30400571Y-38010857D01*
X30329143Y-38153714D01*
X30257714Y-38439429D01*
X30257714Y-38653714D01*
X30329143Y-38939429D01*
X30400571Y-39082286D01*
X30543429Y-39225143D01*
X30757714Y-39296571D01*
X30900571Y-39296571D01*
X31114857Y-39225143D01*
X31186286Y-39153714D01*
X31186286Y-38653714D01*
X30900571Y-38653714D01*
X31829143Y-39296571D02*
X31829143Y-37796571D01*
X32686286Y-39296571D01*
X32686286Y-37796571D01*
X33400572Y-39296571D02*
X33400572Y-37796571D01*
X33757715Y-37796571D01*
X33972000Y-37868000D01*
X34114858Y-38010857D01*
X34186286Y-38153714D01*
X34257715Y-38439429D01*
X34257715Y-38653714D01*
X34186286Y-38939429D01*
X34114858Y-39082286D01*
X33972000Y-39225143D01*
X33757715Y-39296571D01*
X33400572Y-39296571D01*
X44918286Y-30136571D02*
X45846857Y-30136571D01*
X45346857Y-30708000D01*
X45561143Y-30708000D01*
X45704000Y-30779429D01*
X45775429Y-30850857D01*
X45846857Y-30993714D01*
X45846857Y-31350857D01*
X45775429Y-31493714D01*
X45704000Y-31565143D01*
X45561143Y-31636571D01*
X45132571Y-31636571D01*
X44989714Y-31565143D01*
X44918286Y-31493714D01*
X46489714Y-31493714D02*
X46561142Y-31565143D01*
X46489714Y-31636571D01*
X46418285Y-31565143D01*
X46489714Y-31493714D01*
X46489714Y-31636571D01*
X47061143Y-30136571D02*
X47989714Y-30136571D01*
X47489714Y-30708000D01*
X47704000Y-30708000D01*
X47846857Y-30779429D01*
X47918286Y-30850857D01*
X47989714Y-30993714D01*
X47989714Y-31350857D01*
X47918286Y-31493714D01*
X47846857Y-31565143D01*
X47704000Y-31636571D01*
X47275428Y-31636571D01*
X47132571Y-31565143D01*
X47061143Y-31493714D01*
X48418285Y-30136571D02*
X48918285Y-31636571D01*
X49418285Y-30136571D01*
X45775429Y-32686571D02*
X45061143Y-32686571D01*
X44989714Y-33400857D01*
X45061143Y-33329429D01*
X45204000Y-33258000D01*
X45561143Y-33258000D01*
X45704000Y-33329429D01*
X45775429Y-33400857D01*
X45846857Y-33543714D01*
X45846857Y-33900857D01*
X45775429Y-34043714D01*
X45704000Y-34115143D01*
X45561143Y-34186571D01*
X45204000Y-34186571D01*
X45061143Y-34115143D01*
X44989714Y-34043714D01*
X46275428Y-32686571D02*
X46775428Y-34186571D01*
X47275428Y-32686571D01*
X45846857Y-35308000D02*
X45704000Y-35236571D01*
X45489714Y-35236571D01*
X45275429Y-35308000D01*
X45132571Y-35450857D01*
X45061143Y-35593714D01*
X44989714Y-35879429D01*
X44989714Y-36093714D01*
X45061143Y-36379429D01*
X45132571Y-36522286D01*
X45275429Y-36665143D01*
X45489714Y-36736571D01*
X45632571Y-36736571D01*
X45846857Y-36665143D01*
X45918286Y-36593714D01*
X45918286Y-36093714D01*
X45632571Y-36093714D01*
X46561143Y-36736571D02*
X46561143Y-35236571D01*
X47418286Y-36736571D01*
X47418286Y-35236571D01*
X48132572Y-36736571D02*
X48132572Y-35236571D01*
X48489715Y-35236571D01*
X48704000Y-35308000D01*
X48846858Y-35450857D01*
X48918286Y-35593714D01*
X48989715Y-35879429D01*
X48989715Y-36093714D01*
X48918286Y-36379429D01*
X48846858Y-36522286D01*
X48704000Y-36665143D01*
X48489715Y-36736571D01*
X48132572Y-36736571D01*
X44989714Y-39215143D02*
X45204000Y-39286571D01*
X45561143Y-39286571D01*
X45704000Y-39215143D01*
X45775429Y-39143714D01*
X45846857Y-39000857D01*
X45846857Y-38858000D01*
X45775429Y-38715143D01*
X45704000Y-38643714D01*
X45561143Y-38572286D01*
X45275429Y-38500857D01*
X45132571Y-38429429D01*
X45061143Y-38358000D01*
X44989714Y-38215143D01*
X44989714Y-38072286D01*
X45061143Y-37929429D01*
X45132571Y-37858000D01*
X45275429Y-37786571D01*
X45632571Y-37786571D01*
X45846857Y-37858000D01*
X46489714Y-39286571D02*
X46489714Y-37786571D01*
X46846857Y-37786571D01*
X47061142Y-37858000D01*
X47204000Y-38000857D01*
X47275428Y-38143714D01*
X47346857Y-38429429D01*
X47346857Y-38643714D01*
X47275428Y-38929429D01*
X47204000Y-39072286D01*
X47061142Y-39215143D01*
X46846857Y-39286571D01*
X46489714Y-39286571D01*
X47918285Y-38858000D02*
X48632571Y-38858000D01*
X47775428Y-39286571D02*
X48275428Y-37786571D01*
X48775428Y-39286571D01*
X44989714Y-41765143D02*
X45204000Y-41836571D01*
X45561143Y-41836571D01*
X45704000Y-41765143D01*
X45775429Y-41693714D01*
X45846857Y-41550857D01*
X45846857Y-41408000D01*
X45775429Y-41265143D01*
X45704000Y-41193714D01*
X45561143Y-41122286D01*
X45275429Y-41050857D01*
X45132571Y-40979429D01*
X45061143Y-40908000D01*
X44989714Y-40765143D01*
X44989714Y-40622286D01*
X45061143Y-40479429D01*
X45132571Y-40408000D01*
X45275429Y-40336571D01*
X45632571Y-40336571D01*
X45846857Y-40408000D01*
X47346857Y-41693714D02*
X47275428Y-41765143D01*
X47061142Y-41836571D01*
X46918285Y-41836571D01*
X46704000Y-41765143D01*
X46561142Y-41622286D01*
X46489714Y-41479429D01*
X46418285Y-41193714D01*
X46418285Y-40979429D01*
X46489714Y-40693714D01*
X46561142Y-40550857D01*
X46704000Y-40408000D01*
X46918285Y-40336571D01*
X47061142Y-40336571D01*
X47275428Y-40408000D01*
X47346857Y-40479429D01*
X48704000Y-41836571D02*
X47989714Y-41836571D01*
X47989714Y-40336571D01*
X44918286Y-42886571D02*
X45275429Y-44386571D01*
X45561143Y-43315143D01*
X45846857Y-44386571D01*
X46204000Y-42886571D01*
X46704000Y-44315143D02*
X46918286Y-44386571D01*
X47275429Y-44386571D01*
X47418286Y-44315143D01*
X47489715Y-44243714D01*
X47561143Y-44100857D01*
X47561143Y-43958000D01*
X47489715Y-43815143D01*
X47418286Y-43743714D01*
X47275429Y-43672286D01*
X46989715Y-43600857D01*
X46846857Y-43529429D01*
X46775429Y-43458000D01*
X46704000Y-43315143D01*
X46704000Y-43172286D01*
X46775429Y-43029429D01*
X46846857Y-42958000D01*
X46989715Y-42886571D01*
X47346857Y-42886571D01*
X47561143Y-42958000D01*
X48132571Y-43029429D02*
X48204000Y-42958000D01*
X48346857Y-42886571D01*
X48704000Y-42886571D01*
X48846857Y-42958000D01*
X48918286Y-43029429D01*
X48989714Y-43172286D01*
X48989714Y-43315143D01*
X48918286Y-43529429D01*
X48061143Y-44386571D01*
X48989714Y-44386571D01*
X49846857Y-43529429D02*
X49703999Y-43458000D01*
X49632571Y-43386571D01*
X49561142Y-43243714D01*
X49561142Y-43172286D01*
X49632571Y-43029429D01*
X49703999Y-42958000D01*
X49846857Y-42886571D01*
X50132571Y-42886571D01*
X50275428Y-42958000D01*
X50346857Y-43029429D01*
X50418285Y-43172286D01*
X50418285Y-43243714D01*
X50346857Y-43386571D01*
X50275428Y-43458000D01*
X50132571Y-43529429D01*
X49846857Y-43529429D01*
X49703999Y-43600857D01*
X49632571Y-43672286D01*
X49561142Y-43815143D01*
X49561142Y-44100857D01*
X49632571Y-44243714D01*
X49703999Y-44315143D01*
X49846857Y-44386571D01*
X50132571Y-44386571D01*
X50275428Y-44315143D01*
X50346857Y-44243714D01*
X50418285Y-44100857D01*
X50418285Y-43815143D01*
X50346857Y-43672286D01*
X50275428Y-43600857D01*
X50132571Y-43529429D01*
X51846856Y-44386571D02*
X50989713Y-44386571D01*
X51418285Y-44386571D02*
X51418285Y-42886571D01*
X51275428Y-43100857D01*
X51132570Y-43243714D01*
X50989713Y-43315143D01*
X52418284Y-43029429D02*
X52489713Y-42958000D01*
X52632570Y-42886571D01*
X52989713Y-42886571D01*
X53132570Y-42958000D01*
X53203999Y-43029429D01*
X53275427Y-43172286D01*
X53275427Y-43315143D01*
X53203999Y-43529429D01*
X52346856Y-44386571D01*
X53275427Y-44386571D01*
X54418284Y-43600857D02*
X54632570Y-43672286D01*
X54703998Y-43743714D01*
X54775427Y-43886571D01*
X54775427Y-44100857D01*
X54703998Y-44243714D01*
X54632570Y-44315143D01*
X54489712Y-44386571D01*
X53918284Y-44386571D01*
X53918284Y-42886571D01*
X54418284Y-42886571D01*
X54561141Y-42958000D01*
X54632570Y-43029429D01*
X54703998Y-43172286D01*
X54703998Y-43315143D01*
X54632570Y-43458000D01*
X54561141Y-43529429D01*
X54418284Y-43600857D01*
X53918284Y-43600857D01*
X45061143Y-46936571D02*
X45061143Y-45436571D01*
X45561143Y-46508000D01*
X46061143Y-45436571D01*
X46061143Y-46936571D01*
X46775429Y-46936571D02*
X46775429Y-45436571D01*
X48346858Y-46793714D02*
X48275429Y-46865143D01*
X48061143Y-46936571D01*
X47918286Y-46936571D01*
X47704001Y-46865143D01*
X47561143Y-46722286D01*
X47489715Y-46579429D01*
X47418286Y-46293714D01*
X47418286Y-46079429D01*
X47489715Y-45793714D01*
X47561143Y-45650857D01*
X47704001Y-45508000D01*
X47918286Y-45436571D01*
X48061143Y-45436571D01*
X48275429Y-45508000D01*
X48346858Y-45579429D01*
X95948572Y-33635143D02*
X97091429Y-33635143D01*
X95861143Y-31095143D02*
X97004000Y-31095143D01*
X96432571Y-31666571D02*
X96432571Y-30523714D01*
X113454571Y-75856570D02*
X111954571Y-75856570D01*
X113026000Y-75356570D01*
X111954571Y-74856570D01*
X113454571Y-74856570D01*
X113454571Y-73499427D02*
X112668857Y-73499427D01*
X112526000Y-73570856D01*
X112454571Y-73713713D01*
X112454571Y-73999427D01*
X112526000Y-74142284D01*
X113383143Y-73499427D02*
X113454571Y-73642284D01*
X113454571Y-73999427D01*
X113383143Y-74142284D01*
X113240286Y-74213713D01*
X113097429Y-74213713D01*
X112954571Y-74142284D01*
X112883143Y-73999427D01*
X112883143Y-73642284D01*
X112811714Y-73499427D01*
X113454571Y-72785141D02*
X112454571Y-72785141D01*
X111954571Y-72785141D02*
X112026000Y-72856570D01*
X112097429Y-72785141D01*
X112026000Y-72713713D01*
X111954571Y-72785141D01*
X112097429Y-72785141D01*
X112454571Y-72070855D02*
X113454571Y-72070855D01*
X112597429Y-72070855D02*
X112526000Y-71999427D01*
X112454571Y-71856569D01*
X112454571Y-71642284D01*
X112526000Y-71499427D01*
X112668857Y-71427998D01*
X113454571Y-71427998D01*
X112454571Y-70927998D02*
X112454571Y-70356569D01*
X113454571Y-70713712D02*
X112168857Y-70713712D01*
X112026000Y-70642284D01*
X111954571Y-70499426D01*
X111954571Y-70356569D01*
X113454571Y-69856569D02*
X112454571Y-69856569D01*
X112740286Y-69856569D02*
X112597429Y-69785141D01*
X112526000Y-69713712D01*
X112454571Y-69570855D01*
X112454571Y-69427998D01*
X113454571Y-68285141D02*
X112668857Y-68285141D01*
X112526000Y-68356570D01*
X112454571Y-68499427D01*
X112454571Y-68785141D01*
X112526000Y-68927998D01*
X113383143Y-68285141D02*
X113454571Y-68427998D01*
X113454571Y-68785141D01*
X113383143Y-68927998D01*
X113240286Y-68999427D01*
X113097429Y-68999427D01*
X112954571Y-68927998D01*
X112883143Y-68785141D01*
X112883143Y-68427998D01*
X112811714Y-68285141D01*
X113454571Y-67570855D02*
X112454571Y-67570855D01*
X112597429Y-67570855D02*
X112526000Y-67499427D01*
X112454571Y-67356569D01*
X112454571Y-67142284D01*
X112526000Y-66999427D01*
X112668857Y-66927998D01*
X113454571Y-66927998D01*
X112668857Y-66927998D02*
X112526000Y-66856569D01*
X112454571Y-66713712D01*
X112454571Y-66499427D01*
X112526000Y-66356569D01*
X112668857Y-66285141D01*
X113454571Y-66285141D01*
X113383143Y-64999427D02*
X113454571Y-65142284D01*
X113454571Y-65427998D01*
X113383143Y-65570855D01*
X113240286Y-65642284D01*
X112668857Y-65642284D01*
X112526000Y-65570855D01*
X112454571Y-65427998D01*
X112454571Y-65142284D01*
X112526000Y-64999427D01*
X112668857Y-64927998D01*
X112811714Y-64927998D01*
X112954571Y-65642284D01*
X112883143Y-63142284D02*
X112883143Y-61999427D01*
X112668857Y-59642284D02*
X112668857Y-60142284D01*
X113454571Y-60142284D02*
X111954571Y-60142284D01*
X111954571Y-59427998D01*
X113383143Y-58285142D02*
X113454571Y-58427999D01*
X113454571Y-58713713D01*
X113383143Y-58856570D01*
X113240286Y-58927999D01*
X112668857Y-58927999D01*
X112526000Y-58856570D01*
X112454571Y-58713713D01*
X112454571Y-58427999D01*
X112526000Y-58285142D01*
X112668857Y-58213713D01*
X112811714Y-58213713D01*
X112954571Y-58927999D01*
X113454571Y-57570856D02*
X112454571Y-57570856D01*
X112740286Y-57570856D02*
X112597429Y-57499428D01*
X112526000Y-57427999D01*
X112454571Y-57285142D01*
X112454571Y-57142285D01*
X113454571Y-56642285D02*
X112454571Y-56642285D01*
X111954571Y-56642285D02*
X112026000Y-56713714D01*
X112097429Y-56642285D01*
X112026000Y-56570857D01*
X111954571Y-56642285D01*
X112097429Y-56642285D01*
X113383143Y-55356571D02*
X113454571Y-55499428D01*
X113454571Y-55785142D01*
X113383143Y-55927999D01*
X113240286Y-55999428D01*
X112668857Y-55999428D01*
X112526000Y-55927999D01*
X112454571Y-55785142D01*
X112454571Y-55499428D01*
X112526000Y-55356571D01*
X112668857Y-55285142D01*
X112811714Y-55285142D01*
X112954571Y-55999428D01*
X112454571Y-54642285D02*
X113454571Y-54642285D01*
X112597429Y-54642285D02*
X112526000Y-54570857D01*
X112454571Y-54427999D01*
X112454571Y-54213714D01*
X112526000Y-54070857D01*
X112668857Y-53999428D01*
X113454571Y-53999428D01*
X112454571Y-53285142D02*
X113954571Y-53285142D01*
X112526000Y-53285142D02*
X112454571Y-53142285D01*
X112454571Y-52856571D01*
X112526000Y-52713714D01*
X112597429Y-52642285D01*
X112740286Y-52570856D01*
X113168857Y-52570856D01*
X113311714Y-52642285D01*
X113383143Y-52713714D01*
X113454571Y-52856571D01*
X113454571Y-53142285D01*
X113383143Y-53285142D01*
X113454571Y-51285142D02*
X112668857Y-51285142D01*
X112526000Y-51356571D01*
X112454571Y-51499428D01*
X112454571Y-51785142D01*
X112526000Y-51927999D01*
X113383143Y-51285142D02*
X113454571Y-51427999D01*
X113454571Y-51785142D01*
X113383143Y-51927999D01*
X113240286Y-51999428D01*
X113097429Y-51999428D01*
X112954571Y-51927999D01*
X112883143Y-51785142D01*
X112883143Y-51427999D01*
X112811714Y-51285142D01*
X113383143Y-50642285D02*
X113454571Y-50499428D01*
X113454571Y-50213713D01*
X113383143Y-50070856D01*
X113240286Y-49999428D01*
X113168857Y-49999428D01*
X113026000Y-50070856D01*
X112954571Y-50213713D01*
X112954571Y-50427999D01*
X112883143Y-50570856D01*
X112740286Y-50642285D01*
X112668857Y-50642285D01*
X112526000Y-50570856D01*
X112454571Y-50427999D01*
X112454571Y-50213713D01*
X112526000Y-50070856D01*
X113383143Y-49427999D02*
X113454571Y-49285142D01*
X113454571Y-48999427D01*
X113383143Y-48856570D01*
X113240286Y-48785142D01*
X113168857Y-48785142D01*
X113026000Y-48856570D01*
X112954571Y-48999427D01*
X112954571Y-49213713D01*
X112883143Y-49356570D01*
X112740286Y-49427999D01*
X112668857Y-49427999D01*
X112526000Y-49356570D01*
X112454571Y-49213713D01*
X112454571Y-48999427D01*
X112526000Y-48856570D01*
X112097429Y-47070856D02*
X112026000Y-46999427D01*
X111954571Y-46856570D01*
X111954571Y-46499427D01*
X112026000Y-46356570D01*
X112097429Y-46285141D01*
X112240286Y-46213713D01*
X112383143Y-46213713D01*
X112597429Y-46285141D01*
X113454571Y-47142284D01*
X113454571Y-46213713D01*
X111954571Y-45285142D02*
X111954571Y-45142285D01*
X112026000Y-44999428D01*
X112097429Y-44927999D01*
X112240286Y-44856570D01*
X112526000Y-44785142D01*
X112883143Y-44785142D01*
X113168857Y-44856570D01*
X113311714Y-44927999D01*
X113383143Y-44999428D01*
X113454571Y-45142285D01*
X113454571Y-45285142D01*
X113383143Y-45427999D01*
X113311714Y-45499428D01*
X113168857Y-45570856D01*
X112883143Y-45642285D01*
X112526000Y-45642285D01*
X112240286Y-45570856D01*
X112097429Y-45499428D01*
X112026000Y-45427999D01*
X111954571Y-45285142D01*
X113454571Y-43356571D02*
X113454571Y-44213714D01*
X113454571Y-43785142D02*
X111954571Y-43785142D01*
X112168857Y-43927999D01*
X112311714Y-44070857D01*
X112383143Y-44213714D01*
X111954571Y-42856571D02*
X111954571Y-41856571D01*
X113454571Y-42499428D01*
D12*
X58674000Y-81594000D02*
X63814000Y-81594000D01*
X63814000Y-81594000D02*
X63814000Y-78934000D01*
X63814000Y-78934000D02*
X58674000Y-78934000D01*
X58674000Y-78934000D02*
X58674000Y-81594000D01*
X57404000Y-81594000D02*
X56074000Y-81594000D01*
X56074000Y-81594000D02*
X56074000Y-80264000D01*
D13*
X58166000Y-75438000D02*
X83566000Y-75438000D01*
X83566000Y-75438000D02*
X83566000Y-23368000D01*
X83566000Y-23368000D02*
X58166000Y-23368000D01*
X58166000Y-23368000D02*
X58166000Y-75438000D01*
D12*
X111770000Y-32278000D02*
G75*
G03X111770000Y-32278000I-5090000J0D01*
G01*
X111730000Y-32278000D02*
X101630000Y-32278000D01*
X111730000Y-32318000D02*
X101630000Y-32318000D01*
X111730000Y-32358000D02*
X101630000Y-32358000D01*
X111729000Y-32398000D02*
X101631000Y-32398000D01*
X111728000Y-32438000D02*
X101632000Y-32438000D01*
X111727000Y-32478000D02*
X101633000Y-32478000D01*
X111725000Y-32518000D02*
X101635000Y-32518000D01*
X111723000Y-32558000D02*
X107660000Y-32558000D01*
X105700000Y-32558000D02*
X101637000Y-32558000D01*
X111720000Y-32598000D02*
X107660000Y-32598000D01*
X105700000Y-32598000D02*
X101640000Y-32598000D01*
X111718000Y-32638000D02*
X107660000Y-32638000D01*
X105700000Y-32638000D02*
X101642000Y-32638000D01*
X111715000Y-32678000D02*
X107660000Y-32678000D01*
X105700000Y-32678000D02*
X101645000Y-32678000D01*
X111711000Y-32718000D02*
X107660000Y-32718000D01*
X105700000Y-32718000D02*
X101649000Y-32718000D01*
X111708000Y-32758000D02*
X107660000Y-32758000D01*
X105700000Y-32758000D02*
X101652000Y-32758000D01*
X111704000Y-32798000D02*
X107660000Y-32798000D01*
X105700000Y-32798000D02*
X101656000Y-32798000D01*
X111700000Y-32838000D02*
X107660000Y-32838000D01*
X105700000Y-32838000D02*
X101660000Y-32838000D01*
X111695000Y-32878000D02*
X107660000Y-32878000D01*
X105700000Y-32878000D02*
X101665000Y-32878000D01*
X111690000Y-32918000D02*
X107660000Y-32918000D01*
X105700000Y-32918000D02*
X101670000Y-32918000D01*
X111685000Y-32958000D02*
X107660000Y-32958000D01*
X105700000Y-32958000D02*
X101675000Y-32958000D01*
X111679000Y-32999000D02*
X107660000Y-32999000D01*
X105700000Y-32999000D02*
X101681000Y-32999000D01*
X111673000Y-33039000D02*
X107660000Y-33039000D01*
X105700000Y-33039000D02*
X101687000Y-33039000D01*
X111667000Y-33079000D02*
X107660000Y-33079000D01*
X105700000Y-33079000D02*
X101693000Y-33079000D01*
X111661000Y-33119000D02*
X107660000Y-33119000D01*
X105700000Y-33119000D02*
X101699000Y-33119000D01*
X111654000Y-33159000D02*
X107660000Y-33159000D01*
X105700000Y-33159000D02*
X101706000Y-33159000D01*
X111647000Y-33199000D02*
X107660000Y-33199000D01*
X105700000Y-33199000D02*
X101713000Y-33199000D01*
X111639000Y-33239000D02*
X107660000Y-33239000D01*
X105700000Y-33239000D02*
X101721000Y-33239000D01*
X111631000Y-33279000D02*
X107660000Y-33279000D01*
X105700000Y-33279000D02*
X101729000Y-33279000D01*
X111623000Y-33319000D02*
X107660000Y-33319000D01*
X105700000Y-33319000D02*
X101737000Y-33319000D01*
X111615000Y-33359000D02*
X107660000Y-33359000D01*
X105700000Y-33359000D02*
X101745000Y-33359000D01*
X111606000Y-33399000D02*
X107660000Y-33399000D01*
X105700000Y-33399000D02*
X101754000Y-33399000D01*
X111597000Y-33439000D02*
X107660000Y-33439000D01*
X105700000Y-33439000D02*
X101763000Y-33439000D01*
X111587000Y-33479000D02*
X107660000Y-33479000D01*
X105700000Y-33479000D02*
X101773000Y-33479000D01*
X111577000Y-33519000D02*
X107660000Y-33519000D01*
X105700000Y-33519000D02*
X101783000Y-33519000D01*
X111567000Y-33559000D02*
X107660000Y-33559000D01*
X105700000Y-33559000D02*
X101793000Y-33559000D01*
X111556000Y-33599000D02*
X107660000Y-33599000D01*
X105700000Y-33599000D02*
X101804000Y-33599000D01*
X111545000Y-33639000D02*
X107660000Y-33639000D01*
X105700000Y-33639000D02*
X101815000Y-33639000D01*
X111534000Y-33679000D02*
X107660000Y-33679000D01*
X105700000Y-33679000D02*
X101826000Y-33679000D01*
X111523000Y-33719000D02*
X107660000Y-33719000D01*
X105700000Y-33719000D02*
X101837000Y-33719000D01*
X111511000Y-33759000D02*
X107660000Y-33759000D01*
X105700000Y-33759000D02*
X101849000Y-33759000D01*
X111498000Y-33799000D02*
X107660000Y-33799000D01*
X105700000Y-33799000D02*
X101862000Y-33799000D01*
X111486000Y-33839000D02*
X107660000Y-33839000D01*
X105700000Y-33839000D02*
X101874000Y-33839000D01*
X111472000Y-33879000D02*
X107660000Y-33879000D01*
X105700000Y-33879000D02*
X101888000Y-33879000D01*
X111459000Y-33919000D02*
X107660000Y-33919000D01*
X105700000Y-33919000D02*
X101901000Y-33919000D01*
X111445000Y-33959000D02*
X107660000Y-33959000D01*
X105700000Y-33959000D02*
X101915000Y-33959000D01*
X111431000Y-33999000D02*
X107660000Y-33999000D01*
X105700000Y-33999000D02*
X101929000Y-33999000D01*
X111417000Y-34039000D02*
X107660000Y-34039000D01*
X105700000Y-34039000D02*
X101943000Y-34039000D01*
X111402000Y-34079000D02*
X107660000Y-34079000D01*
X105700000Y-34079000D02*
X101958000Y-34079000D01*
X111386000Y-34119000D02*
X107660000Y-34119000D01*
X105700000Y-34119000D02*
X101974000Y-34119000D01*
X111371000Y-34159000D02*
X107660000Y-34159000D01*
X105700000Y-34159000D02*
X101989000Y-34159000D01*
X111354000Y-34199000D02*
X107660000Y-34199000D01*
X105700000Y-34199000D02*
X102006000Y-34199000D01*
X111338000Y-34239000D02*
X107660000Y-34239000D01*
X105700000Y-34239000D02*
X102022000Y-34239000D01*
X111321000Y-34279000D02*
X107660000Y-34279000D01*
X105700000Y-34279000D02*
X102039000Y-34279000D01*
X111304000Y-34319000D02*
X107660000Y-34319000D01*
X105700000Y-34319000D02*
X102056000Y-34319000D01*
X111286000Y-34359000D02*
X107660000Y-34359000D01*
X105700000Y-34359000D02*
X102074000Y-34359000D01*
X111268000Y-34399000D02*
X107660000Y-34399000D01*
X105700000Y-34399000D02*
X102092000Y-34399000D01*
X111249000Y-34439000D02*
X107660000Y-34439000D01*
X105700000Y-34439000D02*
X102111000Y-34439000D01*
X111230000Y-34479000D02*
X107660000Y-34479000D01*
X105700000Y-34479000D02*
X102130000Y-34479000D01*
X111211000Y-34519000D02*
X102149000Y-34519000D01*
X111191000Y-34559000D02*
X102169000Y-34559000D01*
X111171000Y-34599000D02*
X102189000Y-34599000D01*
X111150000Y-34639000D02*
X102210000Y-34639000D01*
X111129000Y-34679000D02*
X102231000Y-34679000D01*
X111108000Y-34719000D02*
X102252000Y-34719000D01*
X111085000Y-34759000D02*
X102275000Y-34759000D01*
X111063000Y-34799000D02*
X102297000Y-34799000D01*
X111040000Y-34839000D02*
X102320000Y-34839000D01*
X111016000Y-34879000D02*
X102344000Y-34879000D01*
X110992000Y-34919000D02*
X102368000Y-34919000D01*
X110968000Y-34959000D02*
X102392000Y-34959000D01*
X110943000Y-34999000D02*
X102417000Y-34999000D01*
X110917000Y-35039000D02*
X102443000Y-35039000D01*
X110891000Y-35079000D02*
X102469000Y-35079000D01*
X110865000Y-35119000D02*
X102495000Y-35119000D01*
X110837000Y-35159000D02*
X102523000Y-35159000D01*
X110810000Y-35199000D02*
X102550000Y-35199000D01*
X110781000Y-35239000D02*
X102579000Y-35239000D01*
X110752000Y-35279000D02*
X102608000Y-35279000D01*
X110723000Y-35319000D02*
X102637000Y-35319000D01*
X110693000Y-35359000D02*
X102667000Y-35359000D01*
X110662000Y-35399000D02*
X102698000Y-35399000D01*
X110631000Y-35439000D02*
X102729000Y-35439000D01*
X110599000Y-35479000D02*
X102761000Y-35479000D01*
X110566000Y-35519000D02*
X102794000Y-35519000D01*
X110533000Y-35559000D02*
X102827000Y-35559000D01*
X110499000Y-35599000D02*
X102861000Y-35599000D01*
X110464000Y-35639000D02*
X102896000Y-35639000D01*
X110428000Y-35679000D02*
X102932000Y-35679000D01*
X110392000Y-35719000D02*
X102968000Y-35719000D01*
X110355000Y-35759000D02*
X103005000Y-35759000D01*
X110317000Y-35799000D02*
X103043000Y-35799000D01*
X110278000Y-35839000D02*
X103082000Y-35839000D01*
X110239000Y-35879000D02*
X103121000Y-35879000D01*
X110198000Y-35919000D02*
X103162000Y-35919000D01*
X110157000Y-35959000D02*
X103203000Y-35959000D01*
X110115000Y-35999000D02*
X103245000Y-35999000D01*
X110071000Y-36039000D02*
X103289000Y-36039000D01*
X110027000Y-36079000D02*
X103333000Y-36079000D01*
X109982000Y-36119000D02*
X103378000Y-36119000D01*
X109935000Y-36159000D02*
X103425000Y-36159000D01*
X109887000Y-36199000D02*
X103473000Y-36199000D01*
X109838000Y-36239000D02*
X103522000Y-36239000D01*
X109788000Y-36279000D02*
X103572000Y-36279000D01*
X109737000Y-36319000D02*
X103623000Y-36319000D01*
X109684000Y-36359000D02*
X103676000Y-36359000D01*
X109629000Y-36399000D02*
X103731000Y-36399000D01*
X109574000Y-36439000D02*
X103786000Y-36439000D01*
X109516000Y-36479000D02*
X103844000Y-36479000D01*
X109457000Y-36519000D02*
X103903000Y-36519000D01*
X109395000Y-36559000D02*
X103965000Y-36559000D01*
X109332000Y-36599000D02*
X104028000Y-36599000D01*
X109267000Y-36639000D02*
X104093000Y-36639000D01*
X109199000Y-36679000D02*
X104161000Y-36679000D01*
X109129000Y-36719000D02*
X104231000Y-36719000D01*
X109057000Y-36759000D02*
X104303000Y-36759000D01*
X108981000Y-36799000D02*
X104379000Y-36799000D01*
X108902000Y-36839000D02*
X104458000Y-36839000D01*
X108820000Y-36879000D02*
X104540000Y-36879000D01*
X108733000Y-36919000D02*
X104627000Y-36919000D01*
X108642000Y-36959000D02*
X104718000Y-36959000D01*
X108546000Y-36999000D02*
X104814000Y-36999000D01*
X108443000Y-37039000D02*
X104917000Y-37039000D01*
X108334000Y-37079000D02*
X105026000Y-37079000D01*
X108216000Y-37119000D02*
X105144000Y-37119000D01*
X108087000Y-37159000D02*
X105273000Y-37159000D01*
X107945000Y-37199000D02*
X105415000Y-37199000D01*
X107784000Y-37239000D02*
X105576000Y-37239000D01*
X107593000Y-37279000D02*
X105767000Y-37279000D01*
X107352000Y-37319000D02*
X106008000Y-37319000D01*
X106959000Y-37359000D02*
X106401000Y-37359000D01*
X106680000Y-28828000D02*
X106680000Y-30028000D01*
X107330000Y-29428000D02*
X106030000Y-29428000D01*
X93158000Y-67818000D02*
X93158000Y-72958000D01*
X93158000Y-72958000D02*
X95818000Y-72958000D01*
X95818000Y-72958000D02*
X95818000Y-67818000D01*
X95818000Y-67818000D02*
X93158000Y-67818000D01*
X93158000Y-66548000D02*
X93158000Y-65218000D01*
X93158000Y-65218000D02*
X94488000Y-65218000D01*
X41850000Y-32258000D02*
X41850000Y-47558000D01*
X41850000Y-47558000D02*
X44510000Y-47558000D01*
X44510000Y-47558000D02*
X44510000Y-32258000D01*
X44510000Y-32258000D02*
X41850000Y-32258000D01*
X41850000Y-30988000D02*
X41850000Y-29658000D01*
X41850000Y-29658000D02*
X43180000Y-29658000D01*
X92650000Y-32258000D02*
X92650000Y-34858000D01*
X92650000Y-34858000D02*
X95310000Y-34858000D01*
X95310000Y-34858000D02*
X95310000Y-32258000D01*
X95310000Y-32258000D02*
X92650000Y-32258000D01*
X92650000Y-30988000D02*
X92650000Y-29658000D01*
X92650000Y-29658000D02*
X93980000Y-29658000D01*
X41850000Y-57658000D02*
X41850000Y-65338000D01*
X41850000Y-65338000D02*
X44510000Y-65338000D01*
X44510000Y-65338000D02*
X44510000Y-57658000D01*
X44510000Y-57658000D02*
X41850000Y-57658000D01*
X41850000Y-56388000D02*
X41850000Y-55058000D01*
X41850000Y-55058000D02*
X43180000Y-55058000D01*
X27118000Y-34798000D02*
X27118000Y-39938000D01*
X27118000Y-39938000D02*
X29778000Y-39938000D01*
X29778000Y-39938000D02*
X29778000Y-34798000D01*
X29778000Y-34798000D02*
X27118000Y-34798000D01*
X27118000Y-33528000D02*
X27118000Y-32198000D01*
X27118000Y-32198000D02*
X28448000Y-32198000D01*
X58674000Y-87690000D02*
X63814000Y-87690000D01*
X63814000Y-87690000D02*
X63814000Y-85030000D01*
X63814000Y-85030000D02*
X58674000Y-85030000D01*
X58674000Y-85030000D02*
X58674000Y-87690000D01*
X57404000Y-87690000D02*
X56074000Y-87690000D01*
X56074000Y-87690000D02*
X56074000Y-86360000D01*
X82606000Y-86360000D02*
G75*
G03X82606000Y-86360000I-6100000J0D01*
G01*
X103260000Y-65798000D02*
X99940000Y-65798000D01*
X99940000Y-65798000D02*
X99940000Y-74918000D01*
X99940000Y-74918000D02*
X103260000Y-74918000D01*
X103260000Y-74918000D02*
X103260000Y-65798000D01*
X101600000Y-64988000D02*
X101600000Y-65798000D01*
X101600000Y-75728000D02*
X101600000Y-74918000D01*
X49978000Y-57658000D02*
X49978000Y-60258000D01*
X49978000Y-60258000D02*
X52638000Y-60258000D01*
X52638000Y-60258000D02*
X52638000Y-57658000D01*
X52638000Y-57658000D02*
X49978000Y-57658000D01*
X49978000Y-56388000D02*
X49978000Y-55058000D01*
X49978000Y-55058000D02*
X51308000Y-55058000D01*
X27118000Y-57658000D02*
X27118000Y-70418000D01*
X27118000Y-70418000D02*
X29778000Y-70418000D01*
X29778000Y-70418000D02*
X29778000Y-57658000D01*
X29778000Y-57658000D02*
X27118000Y-57658000D01*
X27118000Y-56388000D02*
X27118000Y-55058000D01*
X27118000Y-55058000D02*
X28448000Y-55058000D01*
X93742000Y-20200000D02*
X93742000Y-25520000D01*
X93742000Y-25520000D02*
X103362000Y-25520000D01*
X103362000Y-25520000D02*
X103362000Y-20200000D01*
X103362000Y-20200000D02*
X93742000Y-20200000D01*
X92712000Y-22860000D02*
X93742000Y-22860000D01*
X104392000Y-22860000D02*
X103362000Y-22860000D01*
X95227000Y-20200000D02*
X95227000Y-25520000D01*
D13*
X59110667Y-77684381D02*
X59110667Y-78398667D01*
X59063047Y-78541524D01*
X58967809Y-78636762D01*
X58824952Y-78684381D01*
X58729714Y-78684381D01*
X59586857Y-78684381D02*
X59586857Y-77684381D01*
X59967810Y-77684381D01*
X60063048Y-77732000D01*
X60110667Y-77779619D01*
X60158286Y-77874857D01*
X60158286Y-78017714D01*
X60110667Y-78112952D01*
X60063048Y-78160571D01*
X59967810Y-78208190D01*
X59586857Y-78208190D01*
X61110667Y-78684381D02*
X60539238Y-78684381D01*
X60824952Y-78684381D02*
X60824952Y-77684381D01*
X60729714Y-77827238D01*
X60634476Y-77922476D01*
X60539238Y-77970095D01*
X55547238Y-83764381D02*
X55547238Y-82764381D01*
X55785333Y-82764381D01*
X55928191Y-82812000D01*
X56023429Y-82907238D01*
X56071048Y-83002476D01*
X56118667Y-83192952D01*
X56118667Y-83335810D01*
X56071048Y-83526286D01*
X56023429Y-83621524D01*
X55928191Y-83716762D01*
X55785333Y-83764381D01*
X55547238Y-83764381D01*
X56499619Y-83716762D02*
X56642476Y-83764381D01*
X56880572Y-83764381D01*
X56975810Y-83716762D01*
X57023429Y-83669143D01*
X57071048Y-83573905D01*
X57071048Y-83478667D01*
X57023429Y-83383429D01*
X56975810Y-83335810D01*
X56880572Y-83288190D01*
X56690095Y-83240571D01*
X56594857Y-83192952D01*
X56547238Y-83145333D01*
X56499619Y-83050095D01*
X56499619Y-82954857D01*
X56547238Y-82859619D01*
X56594857Y-82812000D01*
X56690095Y-82764381D01*
X56928191Y-82764381D01*
X57071048Y-82812000D01*
X57975810Y-83764381D02*
X57499619Y-83764381D01*
X57499619Y-82764381D01*
X58309143Y-83240571D02*
X58642477Y-83240571D01*
X58785334Y-83764381D02*
X58309143Y-83764381D01*
X58309143Y-82764381D01*
X58785334Y-82764381D01*
X59213905Y-83240571D02*
X59547239Y-83240571D01*
X59690096Y-83764381D02*
X59213905Y-83764381D01*
X59213905Y-82764381D01*
X59690096Y-82764381D01*
X60118667Y-83764381D02*
X60118667Y-82764381D01*
X60499620Y-82764381D01*
X60594858Y-82812000D01*
X60642477Y-82859619D01*
X60690096Y-82954857D01*
X60690096Y-83097714D01*
X60642477Y-83192952D01*
X60594858Y-83240571D01*
X60499620Y-83288190D01*
X60118667Y-83288190D01*
X60880572Y-83859619D02*
X61642477Y-83859619D01*
X62166287Y-82764381D02*
X62166287Y-83478667D01*
X62118667Y-83621524D01*
X62023429Y-83716762D01*
X61880572Y-83764381D01*
X61785334Y-83764381D01*
X62642477Y-82764381D02*
X62642477Y-83573905D01*
X62690096Y-83669143D01*
X62737715Y-83716762D01*
X62832953Y-83764381D01*
X63023430Y-83764381D01*
X63118668Y-83716762D01*
X63166287Y-83669143D01*
X63213906Y-83573905D01*
X63213906Y-82764381D01*
X63690096Y-83764381D02*
X63690096Y-82764381D01*
X64023430Y-83478667D01*
X64356763Y-82764381D01*
X64356763Y-83764381D01*
X64832953Y-83764381D02*
X64832953Y-82764381D01*
X65213906Y-82764381D01*
X65309144Y-82812000D01*
X65356763Y-82859619D01*
X65404382Y-82954857D01*
X65404382Y-83097714D01*
X65356763Y-83192952D01*
X65309144Y-83240571D01*
X65213906Y-83288190D01*
X64832953Y-83288190D01*
X70104095Y-45680381D02*
X70104095Y-46489905D01*
X70151714Y-46585143D01*
X70199333Y-46632762D01*
X70294571Y-46680381D01*
X70485048Y-46680381D01*
X70580286Y-46632762D01*
X70627905Y-46585143D01*
X70675524Y-46489905D01*
X70675524Y-45680381D01*
X71675524Y-46680381D02*
X71104095Y-46680381D01*
X71389809Y-46680381D02*
X71389809Y-45680381D01*
X71294571Y-45823238D01*
X71199333Y-45918476D01*
X71104095Y-45966095D01*
X62342190Y-74620381D02*
X62342190Y-73620381D01*
X62913619Y-74620381D01*
X62913619Y-73620381D01*
X63532666Y-74620381D02*
X63437428Y-74572762D01*
X63389809Y-74525143D01*
X63342190Y-74429905D01*
X63342190Y-74144190D01*
X63389809Y-74048952D01*
X63437428Y-74001333D01*
X63532666Y-73953714D01*
X63675524Y-73953714D01*
X63770762Y-74001333D01*
X63818381Y-74048952D01*
X63866000Y-74144190D01*
X63866000Y-74429905D01*
X63818381Y-74525143D01*
X63770762Y-74572762D01*
X63675524Y-74620381D01*
X63532666Y-74620381D01*
X64723143Y-74620381D02*
X64723143Y-73620381D01*
X64723143Y-74572762D02*
X64627905Y-74620381D01*
X64437428Y-74620381D01*
X64342190Y-74572762D01*
X64294571Y-74525143D01*
X64246952Y-74429905D01*
X64246952Y-74144190D01*
X64294571Y-74048952D01*
X64342190Y-74001333D01*
X64437428Y-73953714D01*
X64627905Y-73953714D01*
X64723143Y-74001333D01*
X65580286Y-74572762D02*
X65485048Y-74620381D01*
X65294571Y-74620381D01*
X65199333Y-74572762D01*
X65151714Y-74477524D01*
X65151714Y-74096571D01*
X65199333Y-74001333D01*
X65294571Y-73953714D01*
X65485048Y-73953714D01*
X65580286Y-74001333D01*
X65627905Y-74096571D01*
X65627905Y-74191810D01*
X65151714Y-74287048D01*
X66056476Y-74620381D02*
X66056476Y-73620381D01*
X66389810Y-74334667D01*
X66723143Y-73620381D01*
X66723143Y-74620381D01*
X67770762Y-74525143D02*
X67723143Y-74572762D01*
X67580286Y-74620381D01*
X67485048Y-74620381D01*
X67342190Y-74572762D01*
X67246952Y-74477524D01*
X67199333Y-74382286D01*
X67151714Y-74191810D01*
X67151714Y-74048952D01*
X67199333Y-73858476D01*
X67246952Y-73763238D01*
X67342190Y-73668000D01*
X67485048Y-73620381D01*
X67580286Y-73620381D01*
X67723143Y-73668000D01*
X67770762Y-73715619D01*
X68199333Y-73620381D02*
X68199333Y-74429905D01*
X68246952Y-74525143D01*
X68294571Y-74572762D01*
X68389809Y-74620381D01*
X68580286Y-74620381D01*
X68675524Y-74572762D01*
X68723143Y-74525143D01*
X68770762Y-74429905D01*
X68770762Y-73620381D01*
X69770762Y-74620381D02*
X69199333Y-74620381D01*
X69485047Y-74620381D02*
X69485047Y-73620381D01*
X69389809Y-73763238D01*
X69294571Y-73858476D01*
X69199333Y-73906095D01*
X70199333Y-74525143D02*
X70246952Y-74572762D01*
X70199333Y-74620381D01*
X70151714Y-74572762D01*
X70199333Y-74525143D01*
X70199333Y-74620381D01*
X70865999Y-73620381D02*
X70961238Y-73620381D01*
X71056476Y-73668000D01*
X71104095Y-73715619D01*
X71151714Y-73810857D01*
X71199333Y-74001333D01*
X71199333Y-74239429D01*
X71151714Y-74429905D01*
X71104095Y-74525143D01*
X71056476Y-74572762D01*
X70961238Y-74620381D01*
X70865999Y-74620381D01*
X70770761Y-74572762D01*
X70723142Y-74525143D01*
X70675523Y-74429905D01*
X70627904Y-74239429D01*
X70627904Y-74001333D01*
X70675523Y-73810857D01*
X70723142Y-73715619D01*
X70770761Y-73668000D01*
X70865999Y-73620381D01*
X71913619Y-75001333D02*
X71865999Y-74953714D01*
X71770761Y-74810857D01*
X71723142Y-74715619D01*
X71675523Y-74572762D01*
X71627904Y-74334667D01*
X71627904Y-74144190D01*
X71675523Y-73906095D01*
X71723142Y-73763238D01*
X71770761Y-73668000D01*
X71865999Y-73525143D01*
X71913619Y-73477524D01*
X72294571Y-74096571D02*
X72627905Y-74096571D01*
X72770762Y-74620381D02*
X72294571Y-74620381D01*
X72294571Y-73620381D01*
X72770762Y-73620381D01*
X73151714Y-74572762D02*
X73294571Y-74620381D01*
X73532667Y-74620381D01*
X73627905Y-74572762D01*
X73675524Y-74525143D01*
X73723143Y-74429905D01*
X73723143Y-74334667D01*
X73675524Y-74239429D01*
X73627905Y-74191810D01*
X73532667Y-74144190D01*
X73342190Y-74096571D01*
X73246952Y-74048952D01*
X73199333Y-74001333D01*
X73151714Y-73906095D01*
X73151714Y-73810857D01*
X73199333Y-73715619D01*
X73246952Y-73668000D01*
X73342190Y-73620381D01*
X73580286Y-73620381D01*
X73723143Y-73668000D01*
X74151714Y-74620381D02*
X74151714Y-73620381D01*
X74532667Y-73620381D01*
X74627905Y-73668000D01*
X74675524Y-73715619D01*
X74723143Y-73810857D01*
X74723143Y-73953714D01*
X74675524Y-74048952D01*
X74627905Y-74096571D01*
X74532667Y-74144190D01*
X74151714Y-74144190D01*
X75151714Y-74239429D02*
X75913619Y-74239429D01*
X76913619Y-74620381D02*
X76342190Y-74620381D01*
X76627904Y-74620381D02*
X76627904Y-73620381D01*
X76532666Y-73763238D01*
X76437428Y-73858476D01*
X76342190Y-73906095D01*
X77294571Y-73715619D02*
X77342190Y-73668000D01*
X77437428Y-73620381D01*
X77675524Y-73620381D01*
X77770762Y-73668000D01*
X77818381Y-73715619D01*
X77866000Y-73810857D01*
X77866000Y-73906095D01*
X77818381Y-74048952D01*
X77246952Y-74620381D01*
X77866000Y-74620381D01*
X78294571Y-74096571D02*
X78627905Y-74096571D01*
X78770762Y-74620381D02*
X78294571Y-74620381D01*
X78294571Y-73620381D01*
X78770762Y-73620381D01*
X79104095Y-75001333D02*
X79151714Y-74953714D01*
X79246952Y-74810857D01*
X79294571Y-74715619D01*
X79342190Y-74572762D01*
X79389809Y-74334667D01*
X79389809Y-74144190D01*
X79342190Y-73906095D01*
X79294571Y-73763238D01*
X79246952Y-73668000D01*
X79151714Y-73525143D01*
X79104095Y-73477524D01*
X78660762Y-30440381D02*
X78994095Y-31440381D01*
X79327429Y-30440381D01*
X79660762Y-31440381D02*
X79660762Y-30440381D01*
X80136952Y-31440381D02*
X80136952Y-30440381D01*
X80708381Y-31440381D01*
X80708381Y-30440381D01*
X80017905Y-33028000D02*
X79922667Y-32980381D01*
X79779810Y-32980381D01*
X79636952Y-33028000D01*
X79541714Y-33123238D01*
X79494095Y-33218476D01*
X79446476Y-33408952D01*
X79446476Y-33551810D01*
X79494095Y-33742286D01*
X79541714Y-33837524D01*
X79636952Y-33932762D01*
X79779810Y-33980381D01*
X79875048Y-33980381D01*
X80017905Y-33932762D01*
X80065524Y-33885143D01*
X80065524Y-33551810D01*
X79875048Y-33551810D01*
X79208381Y-36520381D02*
X78875047Y-36044190D01*
X78636952Y-36520381D02*
X78636952Y-35520381D01*
X79017905Y-35520381D01*
X79113143Y-35568000D01*
X79160762Y-35615619D01*
X79208381Y-35710857D01*
X79208381Y-35853714D01*
X79160762Y-35948952D01*
X79113143Y-35996571D01*
X79017905Y-36044190D01*
X78636952Y-36044190D01*
X79589333Y-36472762D02*
X79732190Y-36520381D01*
X79970286Y-36520381D01*
X80065524Y-36472762D01*
X80113143Y-36425143D01*
X80160762Y-36329905D01*
X80160762Y-36234667D01*
X80113143Y-36139429D01*
X80065524Y-36091810D01*
X79970286Y-36044190D01*
X79779809Y-35996571D01*
X79684571Y-35948952D01*
X79636952Y-35901333D01*
X79589333Y-35806095D01*
X79589333Y-35710857D01*
X79636952Y-35615619D01*
X79684571Y-35568000D01*
X79779809Y-35520381D01*
X80017905Y-35520381D01*
X80160762Y-35568000D01*
X80446476Y-35520381D02*
X81017905Y-35520381D01*
X80732190Y-36520381D02*
X80732190Y-35520381D01*
X79017905Y-38536571D02*
X79351239Y-38536571D01*
X79494096Y-39060381D02*
X79017905Y-39060381D01*
X79017905Y-38060381D01*
X79494096Y-38060381D01*
X79922667Y-39060381D02*
X79922667Y-38060381D01*
X80494096Y-39060381D01*
X80494096Y-38060381D01*
X78994095Y-40600381D02*
X79613143Y-40600381D01*
X79279809Y-40981333D01*
X79422667Y-40981333D01*
X79517905Y-41028952D01*
X79565524Y-41076571D01*
X79613143Y-41171810D01*
X79613143Y-41409905D01*
X79565524Y-41505143D01*
X79517905Y-41552762D01*
X79422667Y-41600381D01*
X79136952Y-41600381D01*
X79041714Y-41552762D01*
X78994095Y-41505143D01*
X79898857Y-40600381D02*
X80232190Y-41600381D01*
X80565524Y-40600381D01*
X80017905Y-43188000D02*
X79922667Y-43140381D01*
X79779810Y-43140381D01*
X79636952Y-43188000D01*
X79541714Y-43283238D01*
X79494095Y-43378476D01*
X79446476Y-43568952D01*
X79446476Y-43711810D01*
X79494095Y-43902286D01*
X79541714Y-43997524D01*
X79636952Y-44092762D01*
X79779810Y-44140381D01*
X79875048Y-44140381D01*
X80017905Y-44092762D01*
X80065524Y-44045143D01*
X80065524Y-43711810D01*
X79875048Y-43711810D01*
X78970286Y-46632762D02*
X79113143Y-46680381D01*
X79351239Y-46680381D01*
X79446477Y-46632762D01*
X79494096Y-46585143D01*
X79541715Y-46489905D01*
X79541715Y-46394667D01*
X79494096Y-46299429D01*
X79446477Y-46251810D01*
X79351239Y-46204190D01*
X79160762Y-46156571D01*
X79065524Y-46108952D01*
X79017905Y-46061333D01*
X78970286Y-45966095D01*
X78970286Y-45870857D01*
X79017905Y-45775619D01*
X79065524Y-45728000D01*
X79160762Y-45680381D01*
X79398858Y-45680381D01*
X79541715Y-45728000D01*
X79970286Y-46680381D02*
X79970286Y-45680381D01*
X80541715Y-46680381D02*
X80113143Y-46108952D01*
X80541715Y-45680381D02*
X79970286Y-46251810D01*
X78946476Y-49172762D02*
X79089333Y-49220381D01*
X79327429Y-49220381D01*
X79422667Y-49172762D01*
X79470286Y-49125143D01*
X79517905Y-49029905D01*
X79517905Y-48934667D01*
X79470286Y-48839429D01*
X79422667Y-48791810D01*
X79327429Y-48744190D01*
X79136952Y-48696571D01*
X79041714Y-48648952D01*
X78994095Y-48601333D01*
X78946476Y-48506095D01*
X78946476Y-48410857D01*
X78994095Y-48315619D01*
X79041714Y-48268000D01*
X79136952Y-48220381D01*
X79375048Y-48220381D01*
X79517905Y-48268000D01*
X80136952Y-48220381D02*
X80327429Y-48220381D01*
X80422667Y-48268000D01*
X80517905Y-48363238D01*
X80565524Y-48553714D01*
X80565524Y-48887048D01*
X80517905Y-49077524D01*
X80422667Y-49172762D01*
X80327429Y-49220381D01*
X80136952Y-49220381D01*
X80041714Y-49172762D01*
X79946476Y-49077524D01*
X79898857Y-48887048D01*
X79898857Y-48553714D01*
X79946476Y-48363238D01*
X80041714Y-48268000D01*
X80136952Y-48220381D01*
X78970286Y-51712762D02*
X79113143Y-51760381D01*
X79351239Y-51760381D01*
X79446477Y-51712762D01*
X79494096Y-51665143D01*
X79541715Y-51569905D01*
X79541715Y-51474667D01*
X79494096Y-51379429D01*
X79446477Y-51331810D01*
X79351239Y-51284190D01*
X79160762Y-51236571D01*
X79065524Y-51188952D01*
X79017905Y-51141333D01*
X78970286Y-51046095D01*
X78970286Y-50950857D01*
X79017905Y-50855619D01*
X79065524Y-50808000D01*
X79160762Y-50760381D01*
X79398858Y-50760381D01*
X79541715Y-50808000D01*
X80541715Y-51665143D02*
X80494096Y-51712762D01*
X80351239Y-51760381D01*
X80256001Y-51760381D01*
X80113143Y-51712762D01*
X80017905Y-51617524D01*
X79970286Y-51522286D01*
X79922667Y-51331810D01*
X79922667Y-51188952D01*
X79970286Y-50998476D01*
X80017905Y-50903238D01*
X80113143Y-50808000D01*
X80256001Y-50760381D01*
X80351239Y-50760381D01*
X80494096Y-50808000D01*
X80541715Y-50855619D01*
X78994095Y-54252762D02*
X79136952Y-54300381D01*
X79375048Y-54300381D01*
X79470286Y-54252762D01*
X79517905Y-54205143D01*
X79565524Y-54109905D01*
X79565524Y-54014667D01*
X79517905Y-53919429D01*
X79470286Y-53871810D01*
X79375048Y-53824190D01*
X79184571Y-53776571D01*
X79089333Y-53728952D01*
X79041714Y-53681333D01*
X78994095Y-53586095D01*
X78994095Y-53490857D01*
X79041714Y-53395619D01*
X79089333Y-53348000D01*
X79184571Y-53300381D01*
X79422667Y-53300381D01*
X79565524Y-53348000D01*
X80517905Y-54300381D02*
X79946476Y-54300381D01*
X80232190Y-54300381D02*
X80232190Y-53300381D01*
X80136952Y-53443238D01*
X80041714Y-53538476D01*
X79946476Y-53586095D01*
X78994095Y-56792762D02*
X79136952Y-56840381D01*
X79375048Y-56840381D01*
X79470286Y-56792762D01*
X79517905Y-56745143D01*
X79565524Y-56649905D01*
X79565524Y-56554667D01*
X79517905Y-56459429D01*
X79470286Y-56411810D01*
X79375048Y-56364190D01*
X79184571Y-56316571D01*
X79089333Y-56268952D01*
X79041714Y-56221333D01*
X78994095Y-56126095D01*
X78994095Y-56030857D01*
X79041714Y-55935619D01*
X79089333Y-55888000D01*
X79184571Y-55840381D01*
X79422667Y-55840381D01*
X79565524Y-55888000D01*
X79946476Y-55935619D02*
X79994095Y-55888000D01*
X80089333Y-55840381D01*
X80327429Y-55840381D01*
X80422667Y-55888000D01*
X80470286Y-55935619D01*
X80517905Y-56030857D01*
X80517905Y-56126095D01*
X80470286Y-56268952D01*
X79898857Y-56840381D01*
X80517905Y-56840381D01*
X78994095Y-59332762D02*
X79136952Y-59380381D01*
X79375048Y-59380381D01*
X79470286Y-59332762D01*
X79517905Y-59285143D01*
X79565524Y-59189905D01*
X79565524Y-59094667D01*
X79517905Y-58999429D01*
X79470286Y-58951810D01*
X79375048Y-58904190D01*
X79184571Y-58856571D01*
X79089333Y-58808952D01*
X79041714Y-58761333D01*
X78994095Y-58666095D01*
X78994095Y-58570857D01*
X79041714Y-58475619D01*
X79089333Y-58428000D01*
X79184571Y-58380381D01*
X79422667Y-58380381D01*
X79565524Y-58428000D01*
X79898857Y-58380381D02*
X80517905Y-58380381D01*
X80184571Y-58761333D01*
X80327429Y-58761333D01*
X80422667Y-58808952D01*
X80470286Y-58856571D01*
X80517905Y-58951810D01*
X80517905Y-59189905D01*
X80470286Y-59285143D01*
X80422667Y-59332762D01*
X80327429Y-59380381D01*
X80041714Y-59380381D01*
X79946476Y-59332762D01*
X79898857Y-59285143D01*
X78898857Y-60920381D02*
X79232190Y-61920381D01*
X79565524Y-60920381D01*
X79898857Y-60920381D02*
X79898857Y-61729905D01*
X79946476Y-61825143D01*
X79994095Y-61872762D01*
X80089333Y-61920381D01*
X80279810Y-61920381D01*
X80375048Y-61872762D01*
X80422667Y-61825143D01*
X80470286Y-61729905D01*
X80470286Y-60920381D01*
X80017905Y-63508000D02*
X79922667Y-63460381D01*
X79779810Y-63460381D01*
X79636952Y-63508000D01*
X79541714Y-63603238D01*
X79494095Y-63698476D01*
X79446476Y-63888952D01*
X79446476Y-64031810D01*
X79494095Y-64222286D01*
X79541714Y-64317524D01*
X79636952Y-64412762D01*
X79779810Y-64460381D01*
X79875048Y-64460381D01*
X80017905Y-64412762D01*
X80065524Y-64365143D01*
X80065524Y-64031810D01*
X79875048Y-64031810D01*
X79041714Y-66714667D02*
X79517905Y-66714667D01*
X78946476Y-67000381D02*
X79279809Y-66000381D01*
X79613143Y-67000381D01*
X80136952Y-66000381D02*
X80232191Y-66000381D01*
X80327429Y-66048000D01*
X80375048Y-66095619D01*
X80422667Y-66190857D01*
X80470286Y-66381333D01*
X80470286Y-66619429D01*
X80422667Y-66809905D01*
X80375048Y-66905143D01*
X80327429Y-66952762D01*
X80232191Y-67000381D01*
X80136952Y-67000381D01*
X80041714Y-66952762D01*
X79994095Y-66905143D01*
X79946476Y-66809905D01*
X79898857Y-66619429D01*
X79898857Y-66381333D01*
X79946476Y-66190857D01*
X79994095Y-66095619D01*
X80041714Y-66048000D01*
X80136952Y-66000381D01*
X61214095Y-30440381D02*
X61833143Y-30440381D01*
X61499809Y-30821333D01*
X61642667Y-30821333D01*
X61737905Y-30868952D01*
X61785524Y-30916571D01*
X61833143Y-31011810D01*
X61833143Y-31249905D01*
X61785524Y-31345143D01*
X61737905Y-31392762D01*
X61642667Y-31440381D01*
X61356952Y-31440381D01*
X61261714Y-31392762D01*
X61214095Y-31345143D01*
X62118857Y-30440381D02*
X62452190Y-31440381D01*
X62785524Y-30440381D01*
X62237905Y-33028000D02*
X62142667Y-32980381D01*
X61999810Y-32980381D01*
X61856952Y-33028000D01*
X61761714Y-33123238D01*
X61714095Y-33218476D01*
X61666476Y-33408952D01*
X61666476Y-33551810D01*
X61714095Y-33742286D01*
X61761714Y-33837524D01*
X61856952Y-33932762D01*
X61999810Y-33980381D01*
X62095048Y-33980381D01*
X62237905Y-33932762D01*
X62285524Y-33885143D01*
X62285524Y-33551810D01*
X62095048Y-33551810D01*
X61214095Y-35520381D02*
X61785524Y-35520381D01*
X61499809Y-36520381D02*
X61499809Y-35520381D01*
X62023619Y-35520381D02*
X62690286Y-36520381D01*
X62690286Y-35520381D02*
X62023619Y-36520381D01*
X61809334Y-39060381D02*
X61476000Y-38584190D01*
X61237905Y-39060381D02*
X61237905Y-38060381D01*
X61618858Y-38060381D01*
X61714096Y-38108000D01*
X61761715Y-38155619D01*
X61809334Y-38250857D01*
X61809334Y-38393714D01*
X61761715Y-38488952D01*
X61714096Y-38536571D01*
X61618858Y-38584190D01*
X61237905Y-38584190D01*
X62142667Y-38060381D02*
X62809334Y-39060381D01*
X62809334Y-38060381D02*
X62142667Y-39060381D01*
X61237905Y-41600381D02*
X61237905Y-40600381D01*
X61476000Y-40600381D01*
X61618858Y-40648000D01*
X61714096Y-40743238D01*
X61761715Y-40838476D01*
X61809334Y-41028952D01*
X61809334Y-41171810D01*
X61761715Y-41362286D01*
X61714096Y-41457524D01*
X61618858Y-41552762D01*
X61476000Y-41600381D01*
X61237905Y-41600381D01*
X62380762Y-41028952D02*
X62285524Y-40981333D01*
X62237905Y-40933714D01*
X62190286Y-40838476D01*
X62190286Y-40790857D01*
X62237905Y-40695619D01*
X62285524Y-40648000D01*
X62380762Y-40600381D01*
X62571239Y-40600381D01*
X62666477Y-40648000D01*
X62714096Y-40695619D01*
X62761715Y-40790857D01*
X62761715Y-40838476D01*
X62714096Y-40933714D01*
X62666477Y-40981333D01*
X62571239Y-41028952D01*
X62380762Y-41028952D01*
X62285524Y-41076571D01*
X62237905Y-41124190D01*
X62190286Y-41219429D01*
X62190286Y-41409905D01*
X62237905Y-41505143D01*
X62285524Y-41552762D01*
X62380762Y-41600381D01*
X62571239Y-41600381D01*
X62666477Y-41552762D01*
X62714096Y-41505143D01*
X62761715Y-41409905D01*
X62761715Y-41219429D01*
X62714096Y-41124190D01*
X62666477Y-41076571D01*
X62571239Y-41028952D01*
X61237905Y-44140381D02*
X61237905Y-43140381D01*
X61476000Y-43140381D01*
X61618858Y-43188000D01*
X61714096Y-43283238D01*
X61761715Y-43378476D01*
X61809334Y-43568952D01*
X61809334Y-43711810D01*
X61761715Y-43902286D01*
X61714096Y-43997524D01*
X61618858Y-44092762D01*
X61476000Y-44140381D01*
X61237905Y-44140381D01*
X62142667Y-43140381D02*
X62809334Y-43140381D01*
X62380762Y-44140381D01*
X61237905Y-46680381D02*
X61237905Y-45680381D01*
X61476000Y-45680381D01*
X61618858Y-45728000D01*
X61714096Y-45823238D01*
X61761715Y-45918476D01*
X61809334Y-46108952D01*
X61809334Y-46251810D01*
X61761715Y-46442286D01*
X61714096Y-46537524D01*
X61618858Y-46632762D01*
X61476000Y-46680381D01*
X61237905Y-46680381D01*
X62666477Y-45680381D02*
X62476000Y-45680381D01*
X62380762Y-45728000D01*
X62333143Y-45775619D01*
X62237905Y-45918476D01*
X62190286Y-46108952D01*
X62190286Y-46489905D01*
X62237905Y-46585143D01*
X62285524Y-46632762D01*
X62380762Y-46680381D01*
X62571239Y-46680381D01*
X62666477Y-46632762D01*
X62714096Y-46585143D01*
X62761715Y-46489905D01*
X62761715Y-46251810D01*
X62714096Y-46156571D01*
X62666477Y-46108952D01*
X62571239Y-46061333D01*
X62380762Y-46061333D01*
X62285524Y-46108952D01*
X62237905Y-46156571D01*
X62190286Y-46251810D01*
X61237905Y-49220381D02*
X61237905Y-48220381D01*
X61476000Y-48220381D01*
X61618858Y-48268000D01*
X61714096Y-48363238D01*
X61761715Y-48458476D01*
X61809334Y-48648952D01*
X61809334Y-48791810D01*
X61761715Y-48982286D01*
X61714096Y-49077524D01*
X61618858Y-49172762D01*
X61476000Y-49220381D01*
X61237905Y-49220381D01*
X62714096Y-48220381D02*
X62237905Y-48220381D01*
X62190286Y-48696571D01*
X62237905Y-48648952D01*
X62333143Y-48601333D01*
X62571239Y-48601333D01*
X62666477Y-48648952D01*
X62714096Y-48696571D01*
X62761715Y-48791810D01*
X62761715Y-49029905D01*
X62714096Y-49125143D01*
X62666477Y-49172762D01*
X62571239Y-49220381D01*
X62333143Y-49220381D01*
X62237905Y-49172762D01*
X62190286Y-49125143D01*
X62237905Y-50808000D02*
X62142667Y-50760381D01*
X61999810Y-50760381D01*
X61856952Y-50808000D01*
X61761714Y-50903238D01*
X61714095Y-50998476D01*
X61666476Y-51188952D01*
X61666476Y-51331810D01*
X61714095Y-51522286D01*
X61761714Y-51617524D01*
X61856952Y-51712762D01*
X61999810Y-51760381D01*
X62095048Y-51760381D01*
X62237905Y-51712762D01*
X62285524Y-51665143D01*
X62285524Y-51331810D01*
X62095048Y-51331810D01*
X61214095Y-53300381D02*
X61833143Y-53300381D01*
X61499809Y-53681333D01*
X61642667Y-53681333D01*
X61737905Y-53728952D01*
X61785524Y-53776571D01*
X61833143Y-53871810D01*
X61833143Y-54109905D01*
X61785524Y-54205143D01*
X61737905Y-54252762D01*
X61642667Y-54300381D01*
X61356952Y-54300381D01*
X61261714Y-54252762D01*
X61214095Y-54205143D01*
X62118857Y-53300381D02*
X62452190Y-54300381D01*
X62785524Y-53300381D01*
X61237905Y-56840381D02*
X61237905Y-55840381D01*
X61476000Y-55840381D01*
X61618858Y-55888000D01*
X61714096Y-55983238D01*
X61761715Y-56078476D01*
X61809334Y-56268952D01*
X61809334Y-56411810D01*
X61761715Y-56602286D01*
X61714096Y-56697524D01*
X61618858Y-56792762D01*
X61476000Y-56840381D01*
X61237905Y-56840381D01*
X62666477Y-56173714D02*
X62666477Y-56840381D01*
X62428381Y-55792762D02*
X62190286Y-56507048D01*
X62809334Y-56507048D01*
X61237905Y-59380381D02*
X61237905Y-58380381D01*
X61476000Y-58380381D01*
X61618858Y-58428000D01*
X61714096Y-58523238D01*
X61761715Y-58618476D01*
X61809334Y-58808952D01*
X61809334Y-58951810D01*
X61761715Y-59142286D01*
X61714096Y-59237524D01*
X61618858Y-59332762D01*
X61476000Y-59380381D01*
X61237905Y-59380381D01*
X62142667Y-58380381D02*
X62761715Y-58380381D01*
X62428381Y-58761333D01*
X62571239Y-58761333D01*
X62666477Y-58808952D01*
X62714096Y-58856571D01*
X62761715Y-58951810D01*
X62761715Y-59189905D01*
X62714096Y-59285143D01*
X62666477Y-59332762D01*
X62571239Y-59380381D01*
X62285524Y-59380381D01*
X62190286Y-59332762D01*
X62142667Y-59285143D01*
X61237905Y-61920381D02*
X61237905Y-60920381D01*
X61476000Y-60920381D01*
X61618858Y-60968000D01*
X61714096Y-61063238D01*
X61761715Y-61158476D01*
X61809334Y-61348952D01*
X61809334Y-61491810D01*
X61761715Y-61682286D01*
X61714096Y-61777524D01*
X61618858Y-61872762D01*
X61476000Y-61920381D01*
X61237905Y-61920381D01*
X62190286Y-61015619D02*
X62237905Y-60968000D01*
X62333143Y-60920381D01*
X62571239Y-60920381D01*
X62666477Y-60968000D01*
X62714096Y-61015619D01*
X62761715Y-61110857D01*
X62761715Y-61206095D01*
X62714096Y-61348952D01*
X62142667Y-61920381D01*
X62761715Y-61920381D01*
X61237905Y-64460381D02*
X61237905Y-63460381D01*
X61476000Y-63460381D01*
X61618858Y-63508000D01*
X61714096Y-63603238D01*
X61761715Y-63698476D01*
X61809334Y-63888952D01*
X61809334Y-64031810D01*
X61761715Y-64222286D01*
X61714096Y-64317524D01*
X61618858Y-64412762D01*
X61476000Y-64460381D01*
X61237905Y-64460381D01*
X62761715Y-64460381D02*
X62190286Y-64460381D01*
X62476000Y-64460381D02*
X62476000Y-63460381D01*
X62380762Y-63603238D01*
X62285524Y-63698476D01*
X62190286Y-63746095D01*
X61237905Y-67000381D02*
X61237905Y-66000381D01*
X61476000Y-66000381D01*
X61618858Y-66048000D01*
X61714096Y-66143238D01*
X61761715Y-66238476D01*
X61809334Y-66428952D01*
X61809334Y-66571810D01*
X61761715Y-66762286D01*
X61714096Y-66857524D01*
X61618858Y-66952762D01*
X61476000Y-67000381D01*
X61237905Y-67000381D01*
X62428381Y-66000381D02*
X62523620Y-66000381D01*
X62618858Y-66048000D01*
X62666477Y-66095619D01*
X62714096Y-66190857D01*
X62761715Y-66381333D01*
X62761715Y-66619429D01*
X62714096Y-66809905D01*
X62666477Y-66905143D01*
X62618858Y-66952762D01*
X62523620Y-67000381D01*
X62428381Y-67000381D01*
X62333143Y-66952762D01*
X62285524Y-66905143D01*
X62237905Y-66809905D01*
X62190286Y-66619429D01*
X62190286Y-66381333D01*
X62237905Y-66190857D01*
X62285524Y-66095619D01*
X62333143Y-66048000D01*
X62428381Y-66000381D01*
X113097143Y-32444666D02*
X113144762Y-32492285D01*
X113192381Y-32635142D01*
X113192381Y-32730380D01*
X113144762Y-32873238D01*
X113049524Y-32968476D01*
X112954286Y-33016095D01*
X112763810Y-33063714D01*
X112620952Y-33063714D01*
X112430476Y-33016095D01*
X112335238Y-32968476D01*
X112240000Y-32873238D01*
X112192381Y-32730380D01*
X112192381Y-32635142D01*
X112240000Y-32492285D01*
X112287619Y-32444666D01*
X113192381Y-31492285D02*
X113192381Y-32063714D01*
X113192381Y-31778000D02*
X112192381Y-31778000D01*
X112335238Y-31873238D01*
X112430476Y-31968476D01*
X112478095Y-32063714D01*
X100167619Y-34944667D02*
X100120000Y-34897048D01*
X100072381Y-34801810D01*
X100072381Y-34563714D01*
X100120000Y-34468476D01*
X100167619Y-34420857D01*
X100262857Y-34373238D01*
X100358095Y-34373238D01*
X100500952Y-34420857D01*
X101072381Y-34992286D01*
X101072381Y-34373238D01*
X100167619Y-33992286D02*
X100120000Y-33944667D01*
X100072381Y-33849429D01*
X100072381Y-33611333D01*
X100120000Y-33516095D01*
X100167619Y-33468476D01*
X100262857Y-33420857D01*
X100358095Y-33420857D01*
X100500952Y-33468476D01*
X101072381Y-34039905D01*
X101072381Y-33420857D01*
X100072381Y-32801810D02*
X100072381Y-32706571D01*
X100120000Y-32611333D01*
X100167619Y-32563714D01*
X100262857Y-32516095D01*
X100453333Y-32468476D01*
X100691429Y-32468476D01*
X100881905Y-32516095D01*
X100977143Y-32563714D01*
X101024762Y-32611333D01*
X101072381Y-32706571D01*
X101072381Y-32801810D01*
X101024762Y-32897048D01*
X100977143Y-32944667D01*
X100881905Y-32992286D01*
X100691429Y-33039905D01*
X100453333Y-33039905D01*
X100262857Y-32992286D01*
X100167619Y-32944667D01*
X100120000Y-32897048D01*
X100072381Y-32801810D01*
X100072381Y-31849429D02*
X100072381Y-31754190D01*
X100120000Y-31658952D01*
X100167619Y-31611333D01*
X100262857Y-31563714D01*
X100453333Y-31516095D01*
X100691429Y-31516095D01*
X100881905Y-31563714D01*
X100977143Y-31611333D01*
X101024762Y-31658952D01*
X101072381Y-31754190D01*
X101072381Y-31849429D01*
X101024762Y-31944667D01*
X100977143Y-31992286D01*
X100881905Y-32039905D01*
X100691429Y-32087524D01*
X100453333Y-32087524D01*
X100262857Y-32039905D01*
X100167619Y-31992286D01*
X100120000Y-31944667D01*
X100072381Y-31849429D01*
X100405714Y-31087524D02*
X101405714Y-31087524D01*
X100929524Y-30611333D02*
X101024762Y-30563714D01*
X101072381Y-30468476D01*
X100929524Y-31087524D02*
X101024762Y-31039905D01*
X101072381Y-30944667D01*
X101072381Y-30754190D01*
X101024762Y-30658952D01*
X100929524Y-30611333D01*
X100405714Y-30611333D01*
X100548571Y-29706571D02*
X100548571Y-30039905D01*
X101072381Y-30039905D02*
X100072381Y-30039905D01*
X100072381Y-29563714D01*
X94154667Y-63670381D02*
X94154667Y-64384667D01*
X94107047Y-64527524D01*
X94011809Y-64622762D01*
X93868952Y-64670381D01*
X93773714Y-64670381D01*
X95154667Y-64670381D02*
X94583238Y-64670381D01*
X94868952Y-64670381D02*
X94868952Y-63670381D01*
X94773714Y-63813238D01*
X94678476Y-63908476D01*
X94583238Y-63956095D01*
X93488000Y-74410381D02*
X93488000Y-73410381D01*
X93821334Y-74124667D01*
X94154667Y-73410381D01*
X94154667Y-74410381D01*
X94630857Y-74410381D02*
X94630857Y-73743714D01*
X94630857Y-73410381D02*
X94583238Y-73458000D01*
X94630857Y-73505619D01*
X94678476Y-73458000D01*
X94630857Y-73410381D01*
X94630857Y-73505619D01*
X95535619Y-74362762D02*
X95440381Y-74410381D01*
X95249904Y-74410381D01*
X95154666Y-74362762D01*
X95107047Y-74315143D01*
X95059428Y-74219905D01*
X95059428Y-73934190D01*
X95107047Y-73838952D01*
X95154666Y-73791333D01*
X95249904Y-73743714D01*
X95440381Y-73743714D01*
X95535619Y-73791333D01*
X42846667Y-28110381D02*
X42846667Y-28824667D01*
X42799047Y-28967524D01*
X42703809Y-29062762D01*
X42560952Y-29110381D01*
X42465714Y-29110381D01*
X43275238Y-28205619D02*
X43322857Y-28158000D01*
X43418095Y-28110381D01*
X43656191Y-28110381D01*
X43751429Y-28158000D01*
X43799048Y-28205619D01*
X43846667Y-28300857D01*
X43846667Y-28396095D01*
X43799048Y-28538952D01*
X43227619Y-29110381D01*
X43846667Y-29110381D01*
X38489524Y-49010381D02*
X38489524Y-48010381D01*
X38727619Y-48010381D01*
X38870477Y-48058000D01*
X38965715Y-48153238D01*
X39013334Y-48248476D01*
X39060953Y-48438952D01*
X39060953Y-48581810D01*
X39013334Y-48772286D01*
X38965715Y-48867524D01*
X38870477Y-48962762D01*
X38727619Y-49010381D01*
X38489524Y-49010381D01*
X39489524Y-48486571D02*
X39822858Y-48486571D01*
X39965715Y-49010381D02*
X39489524Y-49010381D01*
X39489524Y-48010381D01*
X39965715Y-48010381D01*
X40727620Y-48486571D02*
X40870477Y-48534190D01*
X40918096Y-48581810D01*
X40965715Y-48677048D01*
X40965715Y-48819905D01*
X40918096Y-48915143D01*
X40870477Y-48962762D01*
X40775239Y-49010381D01*
X40394286Y-49010381D01*
X40394286Y-48010381D01*
X40727620Y-48010381D01*
X40822858Y-48058000D01*
X40870477Y-48105619D01*
X40918096Y-48200857D01*
X40918096Y-48296095D01*
X40870477Y-48391333D01*
X40822858Y-48438952D01*
X40727620Y-48486571D01*
X40394286Y-48486571D01*
X41394286Y-48010381D02*
X41394286Y-48819905D01*
X41441905Y-48915143D01*
X41489524Y-48962762D01*
X41584762Y-49010381D01*
X41775239Y-49010381D01*
X41870477Y-48962762D01*
X41918096Y-48915143D01*
X41965715Y-48819905D01*
X41965715Y-48010381D01*
X42965715Y-48058000D02*
X42870477Y-48010381D01*
X42727620Y-48010381D01*
X42584762Y-48058000D01*
X42489524Y-48153238D01*
X42441905Y-48248476D01*
X42394286Y-48438952D01*
X42394286Y-48581810D01*
X42441905Y-48772286D01*
X42489524Y-48867524D01*
X42584762Y-48962762D01*
X42727620Y-49010381D01*
X42822858Y-49010381D01*
X42965715Y-48962762D01*
X43013334Y-48915143D01*
X43013334Y-48581810D01*
X42822858Y-48581810D01*
X43203810Y-49105619D02*
X43965715Y-49105619D01*
X44775239Y-48915143D02*
X44727620Y-48962762D01*
X44584763Y-49010381D01*
X44489525Y-49010381D01*
X44346667Y-48962762D01*
X44251429Y-48867524D01*
X44203810Y-48772286D01*
X44156191Y-48581810D01*
X44156191Y-48438952D01*
X44203810Y-48248476D01*
X44251429Y-48153238D01*
X44346667Y-48058000D01*
X44489525Y-48010381D01*
X44584763Y-48010381D01*
X44727620Y-48058000D01*
X44775239Y-48105619D01*
X45394286Y-48010381D02*
X45584763Y-48010381D01*
X45680001Y-48058000D01*
X45775239Y-48153238D01*
X45822858Y-48343714D01*
X45822858Y-48677048D01*
X45775239Y-48867524D01*
X45680001Y-48962762D01*
X45584763Y-49010381D01*
X45394286Y-49010381D01*
X45299048Y-48962762D01*
X45203810Y-48867524D01*
X45156191Y-48677048D01*
X45156191Y-48343714D01*
X45203810Y-48153238D01*
X45299048Y-48058000D01*
X45394286Y-48010381D01*
X46251429Y-49010381D02*
X46251429Y-48010381D01*
X46822858Y-49010381D01*
X46822858Y-48010381D01*
X47299048Y-49010381D02*
X47299048Y-48010381D01*
X47870477Y-49010381D01*
X47870477Y-48010381D01*
X93646667Y-28110381D02*
X93646667Y-28824667D01*
X93599047Y-28967524D01*
X93503809Y-29062762D01*
X93360952Y-29110381D01*
X93265714Y-29110381D01*
X94027619Y-28110381D02*
X94646667Y-28110381D01*
X94313333Y-28491333D01*
X94456191Y-28491333D01*
X94551429Y-28538952D01*
X94599048Y-28586571D01*
X94646667Y-28681810D01*
X94646667Y-28919905D01*
X94599048Y-29015143D01*
X94551429Y-29062762D01*
X94456191Y-29110381D01*
X94170476Y-29110381D01*
X94075238Y-29062762D01*
X94027619Y-29015143D01*
X90194286Y-36310381D02*
X90194286Y-35310381D01*
X90575239Y-35310381D01*
X90670477Y-35358000D01*
X90718096Y-35405619D01*
X90765715Y-35500857D01*
X90765715Y-35643714D01*
X90718096Y-35738952D01*
X90670477Y-35786571D01*
X90575239Y-35834190D01*
X90194286Y-35834190D01*
X91099048Y-35310381D02*
X91337143Y-36310381D01*
X91527620Y-35596095D01*
X91718096Y-36310381D01*
X91956191Y-35310381D01*
X92908572Y-36310381D02*
X92575238Y-35834190D01*
X92337143Y-36310381D02*
X92337143Y-35310381D01*
X92718096Y-35310381D01*
X92813334Y-35358000D01*
X92860953Y-35405619D01*
X92908572Y-35500857D01*
X92908572Y-35643714D01*
X92860953Y-35738952D01*
X92813334Y-35786571D01*
X92718096Y-35834190D01*
X92337143Y-35834190D01*
X93099048Y-36405619D02*
X93860953Y-36405619D01*
X94670477Y-36215143D02*
X94622858Y-36262762D01*
X94480001Y-36310381D01*
X94384763Y-36310381D01*
X94241905Y-36262762D01*
X94146667Y-36167524D01*
X94099048Y-36072286D01*
X94051429Y-35881810D01*
X94051429Y-35738952D01*
X94099048Y-35548476D01*
X94146667Y-35453238D01*
X94241905Y-35358000D01*
X94384763Y-35310381D01*
X94480001Y-35310381D01*
X94622858Y-35358000D01*
X94670477Y-35405619D01*
X95289524Y-35310381D02*
X95480001Y-35310381D01*
X95575239Y-35358000D01*
X95670477Y-35453238D01*
X95718096Y-35643714D01*
X95718096Y-35977048D01*
X95670477Y-36167524D01*
X95575239Y-36262762D01*
X95480001Y-36310381D01*
X95289524Y-36310381D01*
X95194286Y-36262762D01*
X95099048Y-36167524D01*
X95051429Y-35977048D01*
X95051429Y-35643714D01*
X95099048Y-35453238D01*
X95194286Y-35358000D01*
X95289524Y-35310381D01*
X96146667Y-36310381D02*
X96146667Y-35310381D01*
X96718096Y-36310381D01*
X96718096Y-35310381D01*
X97194286Y-36310381D02*
X97194286Y-35310381D01*
X97765715Y-36310381D01*
X97765715Y-35310381D01*
X42846667Y-53510381D02*
X42846667Y-54224667D01*
X42799047Y-54367524D01*
X42703809Y-54462762D01*
X42560952Y-54510381D01*
X42465714Y-54510381D01*
X43751429Y-53843714D02*
X43751429Y-54510381D01*
X43513333Y-53462762D02*
X43275238Y-54177048D01*
X43894286Y-54177048D01*
X39299047Y-65790381D02*
X39394286Y-65790381D01*
X39489524Y-65838000D01*
X39537143Y-65885619D01*
X39584762Y-65980857D01*
X39632381Y-66171333D01*
X39632381Y-66409429D01*
X39584762Y-66599905D01*
X39537143Y-66695143D01*
X39489524Y-66742762D01*
X39394286Y-66790381D01*
X39299047Y-66790381D01*
X39203809Y-66742762D01*
X39156190Y-66695143D01*
X39108571Y-66599905D01*
X39060952Y-66409429D01*
X39060952Y-66171333D01*
X39108571Y-65980857D01*
X39156190Y-65885619D01*
X39203809Y-65838000D01*
X39299047Y-65790381D01*
X40060952Y-66695143D02*
X40108571Y-66742762D01*
X40060952Y-66790381D01*
X40013333Y-66742762D01*
X40060952Y-66695143D01*
X40060952Y-66790381D01*
X40584761Y-66790381D02*
X40775237Y-66790381D01*
X40870476Y-66742762D01*
X40918095Y-66695143D01*
X41013333Y-66552286D01*
X41060952Y-66361810D01*
X41060952Y-65980857D01*
X41013333Y-65885619D01*
X40965714Y-65838000D01*
X40870476Y-65790381D01*
X40679999Y-65790381D01*
X40584761Y-65838000D01*
X40537142Y-65885619D01*
X40489523Y-65980857D01*
X40489523Y-66218952D01*
X40537142Y-66314190D01*
X40584761Y-66361810D01*
X40679999Y-66409429D01*
X40870476Y-66409429D01*
X40965714Y-66361810D01*
X41013333Y-66314190D01*
X41060952Y-66218952D01*
X41394285Y-65790381D02*
X42060952Y-65790381D01*
X41632380Y-66790381D01*
X42394285Y-65790381D02*
X42394285Y-65980857D01*
X42775238Y-65790381D02*
X42775238Y-65980857D01*
X44156190Y-65790381D02*
X44346667Y-65790381D01*
X44441905Y-65838000D01*
X44537143Y-65933238D01*
X44584762Y-66123714D01*
X44584762Y-66457048D01*
X44537143Y-66647524D01*
X44441905Y-66742762D01*
X44346667Y-66790381D01*
X44156190Y-66790381D01*
X44060952Y-66742762D01*
X43965714Y-66647524D01*
X43918095Y-66457048D01*
X43918095Y-66123714D01*
X43965714Y-65933238D01*
X44060952Y-65838000D01*
X44156190Y-65790381D01*
X45489524Y-66790381D02*
X45013333Y-66790381D01*
X45013333Y-65790381D01*
X45822857Y-66266571D02*
X46156191Y-66266571D01*
X46299048Y-66790381D02*
X45822857Y-66790381D01*
X45822857Y-65790381D01*
X46299048Y-65790381D01*
X46727619Y-66790381D02*
X46727619Y-65790381D01*
X46965714Y-65790381D01*
X47108572Y-65838000D01*
X47203810Y-65933238D01*
X47251429Y-66028476D01*
X47299048Y-66218952D01*
X47299048Y-66361810D01*
X47251429Y-66552286D01*
X47203810Y-66647524D01*
X47108572Y-66742762D01*
X46965714Y-66790381D01*
X46727619Y-66790381D01*
X28114667Y-30650381D02*
X28114667Y-31364667D01*
X28067047Y-31507524D01*
X27971809Y-31602762D01*
X27828952Y-31650381D01*
X27733714Y-31650381D01*
X29067048Y-30650381D02*
X28590857Y-30650381D01*
X28543238Y-31126571D01*
X28590857Y-31078952D01*
X28686095Y-31031333D01*
X28924191Y-31031333D01*
X29019429Y-31078952D01*
X29067048Y-31126571D01*
X29114667Y-31221810D01*
X29114667Y-31459905D01*
X29067048Y-31555143D01*
X29019429Y-31602762D01*
X28924191Y-31650381D01*
X28686095Y-31650381D01*
X28590857Y-31602762D01*
X28543238Y-31555143D01*
X25186095Y-40390381D02*
X25424190Y-41390381D01*
X25614667Y-40676095D01*
X25805143Y-41390381D01*
X26043238Y-40390381D01*
X26376571Y-41342762D02*
X26519428Y-41390381D01*
X26757524Y-41390381D01*
X26852762Y-41342762D01*
X26900381Y-41295143D01*
X26948000Y-41199905D01*
X26948000Y-41104667D01*
X26900381Y-41009429D01*
X26852762Y-40961810D01*
X26757524Y-40914190D01*
X26567047Y-40866571D01*
X26471809Y-40818952D01*
X26424190Y-40771333D01*
X26376571Y-40676095D01*
X26376571Y-40580857D01*
X26424190Y-40485619D01*
X26471809Y-40438000D01*
X26567047Y-40390381D01*
X26805143Y-40390381D01*
X26948000Y-40438000D01*
X27328952Y-40485619D02*
X27376571Y-40438000D01*
X27471809Y-40390381D01*
X27709905Y-40390381D01*
X27805143Y-40438000D01*
X27852762Y-40485619D01*
X27900381Y-40580857D01*
X27900381Y-40676095D01*
X27852762Y-40818952D01*
X27281333Y-41390381D01*
X27900381Y-41390381D01*
X28471809Y-40818952D02*
X28376571Y-40771333D01*
X28328952Y-40723714D01*
X28281333Y-40628476D01*
X28281333Y-40580857D01*
X28328952Y-40485619D01*
X28376571Y-40438000D01*
X28471809Y-40390381D01*
X28662286Y-40390381D01*
X28757524Y-40438000D01*
X28805143Y-40485619D01*
X28852762Y-40580857D01*
X28852762Y-40628476D01*
X28805143Y-40723714D01*
X28757524Y-40771333D01*
X28662286Y-40818952D01*
X28471809Y-40818952D01*
X28376571Y-40866571D01*
X28328952Y-40914190D01*
X28281333Y-41009429D01*
X28281333Y-41199905D01*
X28328952Y-41295143D01*
X28376571Y-41342762D01*
X28471809Y-41390381D01*
X28662286Y-41390381D01*
X28757524Y-41342762D01*
X28805143Y-41295143D01*
X28852762Y-41199905D01*
X28852762Y-41009429D01*
X28805143Y-40914190D01*
X28757524Y-40866571D01*
X28662286Y-40818952D01*
X29805143Y-41390381D02*
X29233714Y-41390381D01*
X29519428Y-41390381D02*
X29519428Y-40390381D01*
X29424190Y-40533238D01*
X29328952Y-40628476D01*
X29233714Y-40676095D01*
X30186095Y-40485619D02*
X30233714Y-40438000D01*
X30328952Y-40390381D01*
X30567048Y-40390381D01*
X30662286Y-40438000D01*
X30709905Y-40485619D01*
X30757524Y-40580857D01*
X30757524Y-40676095D01*
X30709905Y-40818952D01*
X30138476Y-41390381D01*
X30757524Y-41390381D01*
X31186095Y-41390381D02*
X31186095Y-40390381D01*
X31186095Y-40771333D02*
X31281333Y-40723714D01*
X31471810Y-40723714D01*
X31567048Y-40771333D01*
X31614667Y-40818952D01*
X31662286Y-40914190D01*
X31662286Y-41199905D01*
X31614667Y-41295143D01*
X31567048Y-41342762D01*
X31471810Y-41390381D01*
X31281333Y-41390381D01*
X31186095Y-41342762D01*
X59110667Y-88352381D02*
X59110667Y-89066667D01*
X59063047Y-89209524D01*
X58967809Y-89304762D01*
X58824952Y-89352381D01*
X58729714Y-89352381D01*
X59586857Y-89352381D02*
X59586857Y-88352381D01*
X59967810Y-88352381D01*
X60063048Y-88400000D01*
X60110667Y-88447619D01*
X60158286Y-88542857D01*
X60158286Y-88685714D01*
X60110667Y-88780952D01*
X60063048Y-88828571D01*
X59967810Y-88876190D01*
X59586857Y-88876190D01*
X60539238Y-88447619D02*
X60586857Y-88400000D01*
X60682095Y-88352381D01*
X60920191Y-88352381D01*
X61015429Y-88400000D01*
X61063048Y-88447619D01*
X61110667Y-88542857D01*
X61110667Y-88638095D01*
X61063048Y-88780952D01*
X60491619Y-89352381D01*
X61110667Y-89352381D01*
X55809143Y-90860571D02*
X55952000Y-90908190D01*
X55999619Y-90955810D01*
X56047238Y-91051048D01*
X56047238Y-91193905D01*
X55999619Y-91289143D01*
X55952000Y-91336762D01*
X55856762Y-91384381D01*
X55475809Y-91384381D01*
X55475809Y-90384381D01*
X55809143Y-90384381D01*
X55904381Y-90432000D01*
X55952000Y-90479619D01*
X55999619Y-90574857D01*
X55999619Y-90670095D01*
X55952000Y-90765333D01*
X55904381Y-90812952D01*
X55809143Y-90860571D01*
X55475809Y-90860571D01*
X56475809Y-90860571D02*
X56809143Y-90860571D01*
X56952000Y-91384381D02*
X56475809Y-91384381D01*
X56475809Y-90384381D01*
X56952000Y-90384381D01*
X57380571Y-90860571D02*
X57713905Y-90860571D01*
X57856762Y-91384381D02*
X57380571Y-91384381D01*
X57380571Y-90384381D01*
X57856762Y-90384381D01*
X58285333Y-91384381D02*
X58285333Y-90384381D01*
X58666286Y-90384381D01*
X58761524Y-90432000D01*
X58809143Y-90479619D01*
X58856762Y-90574857D01*
X58856762Y-90717714D01*
X58809143Y-90812952D01*
X58761524Y-90860571D01*
X58666286Y-90908190D01*
X58285333Y-90908190D01*
X59285333Y-90860571D02*
X59618667Y-90860571D01*
X59761524Y-91384381D02*
X59285333Y-91384381D01*
X59285333Y-90384381D01*
X59761524Y-90384381D01*
X60761524Y-91384381D02*
X60428190Y-90908190D01*
X60190095Y-91384381D02*
X60190095Y-90384381D01*
X60571048Y-90384381D01*
X60666286Y-90432000D01*
X60713905Y-90479619D01*
X60761524Y-90574857D01*
X60761524Y-90717714D01*
X60713905Y-90812952D01*
X60666286Y-90860571D01*
X60571048Y-90908190D01*
X60190095Y-90908190D01*
X60952000Y-91479619D02*
X61713905Y-91479619D01*
X62237715Y-90384381D02*
X62237715Y-91098667D01*
X62190095Y-91241524D01*
X62094857Y-91336762D01*
X61952000Y-91384381D01*
X61856762Y-91384381D01*
X62713905Y-90384381D02*
X62713905Y-91193905D01*
X62761524Y-91289143D01*
X62809143Y-91336762D01*
X62904381Y-91384381D01*
X63094858Y-91384381D01*
X63190096Y-91336762D01*
X63237715Y-91289143D01*
X63285334Y-91193905D01*
X63285334Y-90384381D01*
X63761524Y-91384381D02*
X63761524Y-90384381D01*
X64094858Y-91098667D01*
X64428191Y-90384381D01*
X64428191Y-91384381D01*
X64904381Y-91384381D02*
X64904381Y-90384381D01*
X65285334Y-90384381D01*
X65380572Y-90432000D01*
X65428191Y-90479619D01*
X65475810Y-90574857D01*
X65475810Y-90717714D01*
X65428191Y-90812952D01*
X65380572Y-90860571D01*
X65285334Y-90908190D01*
X64904381Y-90908190D01*
X75863143Y-93812381D02*
X75386952Y-93812381D01*
X75386952Y-92812381D01*
X76148857Y-93764762D02*
X76291714Y-93812381D01*
X76529810Y-93812381D01*
X76625048Y-93764762D01*
X76672667Y-93717143D01*
X76720286Y-93621905D01*
X76720286Y-93526667D01*
X76672667Y-93431429D01*
X76625048Y-93383810D01*
X76529810Y-93336190D01*
X76339333Y-93288571D01*
X76244095Y-93240952D01*
X76196476Y-93193333D01*
X76148857Y-93098095D01*
X76148857Y-93002857D01*
X76196476Y-92907619D01*
X76244095Y-92860000D01*
X76339333Y-92812381D01*
X76577429Y-92812381D01*
X76720286Y-92860000D01*
X77672667Y-93812381D02*
X77101238Y-93812381D01*
X77386952Y-93812381D02*
X77386952Y-92812381D01*
X77291714Y-92955238D01*
X77196476Y-93050476D01*
X77101238Y-93098095D01*
X73744095Y-79764762D02*
X73886952Y-79812381D01*
X74125048Y-79812381D01*
X74220286Y-79764762D01*
X74267905Y-79717143D01*
X74315524Y-79621905D01*
X74315524Y-79526667D01*
X74267905Y-79431429D01*
X74220286Y-79383810D01*
X74125048Y-79336190D01*
X73934571Y-79288571D01*
X73839333Y-79240952D01*
X73791714Y-79193333D01*
X73744095Y-79098095D01*
X73744095Y-79002857D01*
X73791714Y-78907619D01*
X73839333Y-78860000D01*
X73934571Y-78812381D01*
X74172667Y-78812381D01*
X74315524Y-78860000D01*
X74744095Y-79145714D02*
X74744095Y-80145714D01*
X74744095Y-79193333D02*
X74839333Y-79145714D01*
X75029810Y-79145714D01*
X75125048Y-79193333D01*
X75172667Y-79240952D01*
X75220286Y-79336190D01*
X75220286Y-79621905D01*
X75172667Y-79717143D01*
X75125048Y-79764762D01*
X75029810Y-79812381D01*
X74839333Y-79812381D01*
X74744095Y-79764762D01*
X76029810Y-79764762D02*
X75934572Y-79812381D01*
X75744095Y-79812381D01*
X75648857Y-79764762D01*
X75601238Y-79669524D01*
X75601238Y-79288571D01*
X75648857Y-79193333D01*
X75744095Y-79145714D01*
X75934572Y-79145714D01*
X76029810Y-79193333D01*
X76077429Y-79288571D01*
X76077429Y-79383810D01*
X75601238Y-79479048D01*
X76934572Y-79812381D02*
X76934572Y-79288571D01*
X76886953Y-79193333D01*
X76791715Y-79145714D01*
X76601238Y-79145714D01*
X76506000Y-79193333D01*
X76934572Y-79764762D02*
X76839334Y-79812381D01*
X76601238Y-79812381D01*
X76506000Y-79764762D01*
X76458381Y-79669524D01*
X76458381Y-79574286D01*
X76506000Y-79479048D01*
X76601238Y-79431429D01*
X76839334Y-79431429D01*
X76934572Y-79383810D01*
X77410762Y-79812381D02*
X77410762Y-78812381D01*
X77506000Y-79431429D02*
X77791715Y-79812381D01*
X77791715Y-79145714D02*
X77410762Y-79526667D01*
X78601239Y-79764762D02*
X78506001Y-79812381D01*
X78315524Y-79812381D01*
X78220286Y-79764762D01*
X78172667Y-79669524D01*
X78172667Y-79288571D01*
X78220286Y-79193333D01*
X78315524Y-79145714D01*
X78506001Y-79145714D01*
X78601239Y-79193333D01*
X78648858Y-79288571D01*
X78648858Y-79383810D01*
X78172667Y-79479048D01*
X79077429Y-79812381D02*
X79077429Y-79145714D01*
X79077429Y-79336190D02*
X79125048Y-79240952D01*
X79172667Y-79193333D01*
X79267905Y-79145714D01*
X79363144Y-79145714D01*
X79375048Y-88231429D02*
X80136953Y-88231429D01*
X79756001Y-88612381D02*
X79756001Y-87850476D01*
X104712381Y-70524666D02*
X104236190Y-70858000D01*
X104712381Y-71096095D02*
X103712381Y-71096095D01*
X103712381Y-70715142D01*
X103760000Y-70619904D01*
X103807619Y-70572285D01*
X103902857Y-70524666D01*
X104045714Y-70524666D01*
X104140952Y-70572285D01*
X104188571Y-70619904D01*
X104236190Y-70715142D01*
X104236190Y-71096095D01*
X104712381Y-69572285D02*
X104712381Y-70143714D01*
X104712381Y-69858000D02*
X103712381Y-69858000D01*
X103855238Y-69953238D01*
X103950476Y-70048476D01*
X103998095Y-70143714D01*
X99392381Y-71048476D02*
X99392381Y-71619905D01*
X99392381Y-71334191D02*
X98392381Y-71334191D01*
X98535238Y-71429429D01*
X98630476Y-71524667D01*
X98678095Y-71619905D01*
X98392381Y-70429429D02*
X98392381Y-70334190D01*
X98440000Y-70238952D01*
X98487619Y-70191333D01*
X98582857Y-70143714D01*
X98773333Y-70096095D01*
X99011429Y-70096095D01*
X99201905Y-70143714D01*
X99297143Y-70191333D01*
X99344762Y-70238952D01*
X99392381Y-70334190D01*
X99392381Y-70429429D01*
X99344762Y-70524667D01*
X99297143Y-70572286D01*
X99201905Y-70619905D01*
X99011429Y-70667524D01*
X98773333Y-70667524D01*
X98582857Y-70619905D01*
X98487619Y-70572286D01*
X98440000Y-70524667D01*
X98392381Y-70429429D01*
X99392381Y-69667524D02*
X98392381Y-69667524D01*
X99392381Y-69096095D02*
X98820952Y-69524667D01*
X98392381Y-69096095D02*
X98963810Y-69667524D01*
X49974667Y-54462762D02*
X50117524Y-54510381D01*
X50355620Y-54510381D01*
X50450858Y-54462762D01*
X50498477Y-54415143D01*
X50546096Y-54319905D01*
X50546096Y-54224667D01*
X50498477Y-54129429D01*
X50450858Y-54081810D01*
X50355620Y-54034190D01*
X50165143Y-53986571D01*
X50069905Y-53938952D01*
X50022286Y-53891333D01*
X49974667Y-53796095D01*
X49974667Y-53700857D01*
X50022286Y-53605619D01*
X50069905Y-53558000D01*
X50165143Y-53510381D01*
X50403239Y-53510381D01*
X50546096Y-53558000D01*
X50879429Y-53510381D02*
X51117524Y-54510381D01*
X51308001Y-53796095D01*
X51498477Y-54510381D01*
X51736572Y-53510381D01*
X52641334Y-54510381D02*
X52069905Y-54510381D01*
X52355619Y-54510381D02*
X52355619Y-53510381D01*
X52260381Y-53653238D01*
X52165143Y-53748476D01*
X52069905Y-53796095D01*
X48260381Y-61662762D02*
X48403238Y-61710381D01*
X48641334Y-61710381D01*
X48736572Y-61662762D01*
X48784191Y-61615143D01*
X48831810Y-61519905D01*
X48831810Y-61424667D01*
X48784191Y-61329429D01*
X48736572Y-61281810D01*
X48641334Y-61234190D01*
X48450857Y-61186571D01*
X48355619Y-61138952D01*
X48308000Y-61091333D01*
X48260381Y-60996095D01*
X48260381Y-60900857D01*
X48308000Y-60805619D01*
X48355619Y-60758000D01*
X48450857Y-60710381D01*
X48688953Y-60710381D01*
X48831810Y-60758000D01*
X49165143Y-60710381D02*
X49403238Y-61710381D01*
X49593715Y-60996095D01*
X49784191Y-61710381D01*
X50022286Y-60710381D01*
X50165143Y-61805619D02*
X50927048Y-61805619D01*
X51165143Y-61710381D02*
X51165143Y-60710381D01*
X51546096Y-60710381D01*
X51641334Y-60758000D01*
X51688953Y-60805619D01*
X51736572Y-60900857D01*
X51736572Y-61043714D01*
X51688953Y-61138952D01*
X51641334Y-61186571D01*
X51546096Y-61234190D01*
X51165143Y-61234190D01*
X52593715Y-61043714D02*
X52593715Y-61710381D01*
X52165143Y-61043714D02*
X52165143Y-61567524D01*
X52212762Y-61662762D01*
X52308000Y-61710381D01*
X52450858Y-61710381D01*
X52546096Y-61662762D01*
X52593715Y-61615143D01*
X53022286Y-61662762D02*
X53117524Y-61710381D01*
X53308000Y-61710381D01*
X53403239Y-61662762D01*
X53450858Y-61567524D01*
X53450858Y-61519905D01*
X53403239Y-61424667D01*
X53308000Y-61377048D01*
X53165143Y-61377048D01*
X53069905Y-61329429D01*
X53022286Y-61234190D01*
X53022286Y-61186571D01*
X53069905Y-61091333D01*
X53165143Y-61043714D01*
X53308000Y-61043714D01*
X53403239Y-61091333D01*
X53879429Y-61710381D02*
X53879429Y-60710381D01*
X54308001Y-61710381D02*
X54308001Y-61186571D01*
X54260382Y-61091333D01*
X54165144Y-61043714D01*
X54022286Y-61043714D01*
X53927048Y-61091333D01*
X53879429Y-61138952D01*
X27686095Y-53510381D02*
X27686095Y-54319905D01*
X27733714Y-54415143D01*
X27781333Y-54462762D01*
X27876571Y-54510381D01*
X28067048Y-54510381D01*
X28162286Y-54462762D01*
X28209905Y-54415143D01*
X28257524Y-54319905D01*
X28257524Y-53510381D01*
X28686095Y-53605619D02*
X28733714Y-53558000D01*
X28828952Y-53510381D01*
X29067048Y-53510381D01*
X29162286Y-53558000D01*
X29209905Y-53605619D01*
X29257524Y-53700857D01*
X29257524Y-53796095D01*
X29209905Y-53938952D01*
X28638476Y-54510381D01*
X29257524Y-54510381D01*
X26067048Y-71346571D02*
X26209905Y-71394190D01*
X26257524Y-71441810D01*
X26305143Y-71537048D01*
X26305143Y-71679905D01*
X26257524Y-71775143D01*
X26209905Y-71822762D01*
X26114667Y-71870381D01*
X25733714Y-71870381D01*
X25733714Y-70870381D01*
X26067048Y-70870381D01*
X26162286Y-70918000D01*
X26209905Y-70965619D01*
X26257524Y-71060857D01*
X26257524Y-71156095D01*
X26209905Y-71251333D01*
X26162286Y-71298952D01*
X26067048Y-71346571D01*
X25733714Y-71346571D01*
X26733714Y-71870381D02*
X26733714Y-70870381D01*
X27067048Y-71584667D01*
X27400381Y-70870381D01*
X27400381Y-71870381D01*
X27876571Y-71346571D02*
X28209905Y-71346571D01*
X28352762Y-71870381D02*
X27876571Y-71870381D01*
X27876571Y-70870381D01*
X28352762Y-70870381D01*
X28733714Y-70965619D02*
X28781333Y-70918000D01*
X28876571Y-70870381D01*
X29114667Y-70870381D01*
X29209905Y-70918000D01*
X29257524Y-70965619D01*
X29305143Y-71060857D01*
X29305143Y-71156095D01*
X29257524Y-71298952D01*
X28686095Y-71870381D01*
X29305143Y-71870381D01*
X29876571Y-71298952D02*
X29781333Y-71251333D01*
X29733714Y-71203714D01*
X29686095Y-71108476D01*
X29686095Y-71060857D01*
X29733714Y-70965619D01*
X29781333Y-70918000D01*
X29876571Y-70870381D01*
X30067048Y-70870381D01*
X30162286Y-70918000D01*
X30209905Y-70965619D01*
X30257524Y-71060857D01*
X30257524Y-71108476D01*
X30209905Y-71203714D01*
X30162286Y-71251333D01*
X30067048Y-71298952D01*
X29876571Y-71298952D01*
X29781333Y-71346571D01*
X29733714Y-71394190D01*
X29686095Y-71489429D01*
X29686095Y-71679905D01*
X29733714Y-71775143D01*
X29781333Y-71822762D01*
X29876571Y-71870381D01*
X30067048Y-71870381D01*
X30162286Y-71822762D01*
X30209905Y-71775143D01*
X30257524Y-71679905D01*
X30257524Y-71489429D01*
X30209905Y-71394190D01*
X30162286Y-71346571D01*
X30067048Y-71298952D01*
X30876571Y-70870381D02*
X30971810Y-70870381D01*
X31067048Y-70918000D01*
X31114667Y-70965619D01*
X31162286Y-71060857D01*
X31209905Y-71251333D01*
X31209905Y-71489429D01*
X31162286Y-71679905D01*
X31114667Y-71775143D01*
X31067048Y-71822762D01*
X30971810Y-71870381D01*
X30876571Y-71870381D01*
X30781333Y-71822762D01*
X30733714Y-71775143D01*
X30686095Y-71679905D01*
X30638476Y-71489429D01*
X30638476Y-71251333D01*
X30686095Y-71060857D01*
X30733714Y-70965619D01*
X30781333Y-70918000D01*
X30876571Y-70870381D01*
X97813905Y-19652381D02*
X97813905Y-18652381D01*
X98052000Y-18652381D01*
X98194858Y-18700000D01*
X98290096Y-18795238D01*
X98337715Y-18890476D01*
X98385334Y-19080952D01*
X98385334Y-19223810D01*
X98337715Y-19414286D01*
X98290096Y-19509524D01*
X98194858Y-19604762D01*
X98052000Y-19652381D01*
X97813905Y-19652381D01*
X99337715Y-19652381D02*
X98766286Y-19652381D01*
X99052000Y-19652381D02*
X99052000Y-18652381D01*
X98956762Y-18795238D01*
X98861524Y-18890476D01*
X98766286Y-18938095D01*
M02*
